<svg xmlns="http://www.w3.org/2000/svg" xmlns:xlink="http://www.w3.org/1999/xlink" xmlns:s="https://github.com/nturley/netlistsvg" width="1302" height="1216.5">
  <style>svg {
    stroke:#000;
    fill:none;
  }
  text {
    fill:#000;
    stroke:none;
    font-size:10px;
    font-weight: bold;
    font-family: "Courier New", monospace;
  }
  .nodelabel {
    text-anchor: middle;
  }
  .inputPortLabel {
    text-anchor: end;
  }
  .splitjoinBody {
    fill:#000;
  }</style>
  <g s:type="add" transform="translate(630.3333333333334,80)" s:width="25" s:height="25" id="cell_$add$../Verilog/circularfifobuffer.v:115$17">
    <s:alias val="$add"/>
    <circle r="12.5" cx="12.5" cy="12.5" class="cell_$add$../Verilog/circularfifobuffer.v:115$17"/>
    <line x1="7.5" x2="17.5" y1="12.5" y2="12.5" class="cell_$add$../Verilog/circularfifobuffer.v:115$17"/>
    <line x1="12.5" x2="12.5" y1="7.5" y2="17.5" class="cell_$add$../Verilog/circularfifobuffer.v:115$17"/>
    <g s:x="3" s:y="5" s:pid="A"/>
    <g s:x="3" s:y="20" s:pid="B"/>
    <g s:x="25" s:y="12.5" s:pid="Y"/>
  </g>
  <g s:type="add" transform="translate(185.66666666666669,834.5)" s:width="25" s:height="25" id="cell_$add$../Verilog/circularfifobuffer.v:147$28">
    <s:alias val="$add"/>
    <circle r="12.5" cx="12.5" cy="12.5" class="cell_$add$../Verilog/circularfifobuffer.v:147$28"/>
    <line x1="7.5" x2="17.5" y1="12.5" y2="12.5" class="cell_$add$../Verilog/circularfifobuffer.v:147$28"/>
    <line x1="12.5" x2="12.5" y1="7.5" y2="17.5" class="cell_$add$../Verilog/circularfifobuffer.v:147$28"/>
    <g s:x="3" s:y="5" s:pid="A"/>
    <g s:x="3" s:y="20" s:pid="B"/>
    <g s:x="25" s:y="12.5" s:pid="Y"/>
  </g>
  <g s:type="add" transform="translate(249,842)" s:width="25" s:height="25" id="cell_$add$../Verilog/circularfifobuffer.v:149$29">
    <s:alias val="$add"/>
    <circle r="12.5" cx="12.5" cy="12.5" class="cell_$add$../Verilog/circularfifobuffer.v:149$29"/>
    <line x1="7.5" x2="17.5" y1="12.5" y2="12.5" class="cell_$add$../Verilog/circularfifobuffer.v:149$29"/>
    <line x1="12.5" x2="12.5" y1="7.5" y2="17.5" class="cell_$add$../Verilog/circularfifobuffer.v:149$29"/>
    <g s:x="3" s:y="5" s:pid="A"/>
    <g s:x="3" s:y="20" s:pid="B"/>
    <g s:x="25" s:y="12.5" s:pid="Y"/>
  </g>
  <g s:type="add" transform="translate(522.3333333333333,297)" s:width="25" s:height="25" id="cell_$add$../Verilog/circularfifobuffer.v:95$10">
    <s:alias val="$add"/>
    <circle r="12.5" cx="12.5" cy="12.5" class="cell_$add$../Verilog/circularfifobuffer.v:95$10"/>
    <line x1="7.5" x2="17.5" y1="12.5" y2="12.5" class="cell_$add$../Verilog/circularfifobuffer.v:95$10"/>
    <line x1="12.5" x2="12.5" y1="7.5" y2="17.5" class="cell_$add$../Verilog/circularfifobuffer.v:95$10"/>
    <g s:x="3" s:y="5" s:pid="A"/>
    <g s:x="3" s:y="20" s:pid="B"/>
    <g s:x="25" s:y="12.5" s:pid="Y"/>
  </g>
  <g s:type="and" transform="translate(713,512)" s:width="30" s:height="25" id="cell_$and$../Verilog/circularfifobuffer.v:107$15">
    <s:alias val="$and"/>
    <s:alias val="$logic_and"/>
    <s:alias val="$_AND_"/>
    <path d="M0,0 L0,25 L15,25 A15 12.5 0 0 0 15,0 Z" class="cell_$and$../Verilog/circularfifobuffer.v:107$15"/>
    <g s:x="0" s:y="5" s:pid="A"/>
    <g s:x="0" s:y="20" s:pid="B"/>
    <g s:x="30" s:y="12.5" s:pid="Y"/>
  </g>
  <g s:type="and" transform="translate(627,732.5)" s:width="30" s:height="25" id="cell_$and$../Verilog/circularfifobuffer.v:127$22">
    <s:alias val="$and"/>
    <s:alias val="$logic_and"/>
    <s:alias val="$_AND_"/>
    <path d="M0,0 L0,25 L15,25 A15 12.5 0 0 0 15,0 Z" class="cell_$and$../Verilog/circularfifobuffer.v:127$22"/>
    <g s:x="0" s:y="5" s:pid="A"/>
    <g s:x="0" s:y="20" s:pid="B"/>
    <g s:x="30" s:y="12.5" s:pid="Y"/>
  </g>
  <g s:type="eq" transform="translate(630.3333333333334,126)" s:width="25" s:height="25" id="cell_$eq$../Verilog/circularfifobuffer.v:111$16">
    <s:alias val="$eq"/>
    <circle r="12.5" cx="12.5" cy="12.5" class="cell_$eq$../Verilog/circularfifobuffer.v:111$16"/>
    <line x1="7.5" x2="17.5" y1="10" y2="10" class="cell_$eq$../Verilog/circularfifobuffer.v:111$16"/>
    <line x1="7.5" x2="17.5" y1="15" y2="15" class="cell_$eq$../Verilog/circularfifobuffer.v:111$16"/>
    <g s:x="3" s:y="5" s:pid="A"/>
    <g s:x="3" s:y="20" s:pid="B"/>
    <g s:x="25" s:y="12.5" s:pid="Y"/>
  </g>
  <g s:type="not" transform="translate(444,397)" s:width="30" s:height="20" id="cell_$eq$../Verilog/circularfifobuffer.v:131$23">
    <s:alias val="$_NOT_"/>
    <s:alias val="$not"/>
    <s:alias val="$logic_not"/>
    <path d="M0,0 L0,20 L20,10 Z" class="cell_$eq$../Verilog/circularfifobuffer.v:131$23"/>
    <circle cx="23" cy="10" r="3" class="cell_$eq$../Verilog/circularfifobuffer.v:131$23"/>
    <g s:x="0" s:y="10" s:pid="A"/>
    <g s:x="25" s:y="10" s:pid="Y"/>
  </g>
  <g s:type="eq" transform="translate(379,1179.5)" s:width="25" s:height="25" id="cell_$eq$../Verilog/circularfifobuffer.v:137$25">
    <s:alias val="$eq"/>
    <circle r="12.5" cx="12.5" cy="12.5" class="cell_$eq$../Verilog/circularfifobuffer.v:137$25"/>
    <line x1="7.5" x2="17.5" y1="10" y2="10" class="cell_$eq$../Verilog/circularfifobuffer.v:137$25"/>
    <line x1="7.5" x2="17.5" y1="15" y2="15" class="cell_$eq$../Verilog/circularfifobuffer.v:137$25"/>
    <g s:x="3" s:y="5" s:pid="A"/>
    <g s:x="3" s:y="20" s:pid="B"/>
    <g s:x="25" s:y="12.5" s:pid="Y"/>
  </g>
  <g s:type="eq" transform="translate(522.3333333333333,172)" s:width="25" s:height="25" id="cell_$eq$../Verilog/circularfifobuffer.v:91$9">
    <s:alias val="$eq"/>
    <circle r="12.5" cx="12.5" cy="12.5" class="cell_$eq$../Verilog/circularfifobuffer.v:91$9"/>
    <line x1="7.5" x2="17.5" y1="10" y2="10" class="cell_$eq$../Verilog/circularfifobuffer.v:91$9"/>
    <line x1="7.5" x2="17.5" y1="15" y2="15" class="cell_$eq$../Verilog/circularfifobuffer.v:91$9"/>
    <g s:x="3" s:y="5" s:pid="A"/>
    <g s:x="3" s:y="20" s:pid="B"/>
    <g s:x="25" s:y="12.5" s:pid="Y"/>
  </g>
  <g s:type="lt" transform="translate(1232,12)" s:width="25" s:height="25" id="cell_$lt$../Verilog/circularfifobuffer.v:157$30">
    <s:alias val="$lt"/>
    <circle r="12.5" cx="12.5" cy="12.5" class="cell_$lt$../Verilog/circularfifobuffer.v:157$30"/>
    <line x1="7.5" x2="17.5" y1="12.5" y2="7.5" class="cell_$lt$../Verilog/circularfifobuffer.v:157$30"/>
    <line x1="7.5" x2="17.5" y1="12.5" y2="17.5" class="cell_$lt$../Verilog/circularfifobuffer.v:157$30"/>
    <g s:x="3" s:y="5" s:pid="A"/>
    <g s:x="3" s:y="20" s:pid="B"/>
    <g s:x="25" s:y="12.5" s:pid="Y"/>
  </g>
  <g s:type="not" transform="translate(631,562)" s:width="30" s:height="20" id="cell_$not$../Verilog/circularfifobuffer.v:105$14">
    <s:alias val="$_NOT_"/>
    <s:alias val="$not"/>
    <s:alias val="$logic_not"/>
    <path d="M0,0 L0,20 L20,10 Z" class="cell_$not$../Verilog/circularfifobuffer.v:105$14"/>
    <circle cx="23" cy="10" r="3" class="cell_$not$../Verilog/circularfifobuffer.v:105$14"/>
    <g s:x="0" s:y="10" s:pid="A"/>
    <g s:x="25" s:y="10" s:pid="Y"/>
  </g>
  <g s:type="not" transform="translate(524,782.5)" s:width="30" s:height="20" id="cell_$not$../Verilog/circularfifobuffer.v:125$21">
    <s:alias val="$_NOT_"/>
    <s:alias val="$not"/>
    <s:alias val="$logic_not"/>
    <path d="M0,0 L0,20 L20,10 Z" class="cell_$not$../Verilog/circularfifobuffer.v:125$21"/>
    <circle cx="23" cy="10" r="3" class="cell_$not$../Verilog/circularfifobuffer.v:125$21"/>
    <g s:x="0" s:y="10" s:pid="A"/>
    <g s:x="25" s:y="10" s:pid="Y"/>
  </g>
  <g s:type="dff" transform="translate(1167,752.5)" s:width="30" s:height="40" id="cell_$procdff$63">
    <s:alias val="$dff"/>
    <s:alias val="$_DFF_"/>
    <s:alias val="$_DFF_P_"/>
    <rect width="30" height="40" x="0" y="0" class="cell_$procdff$63"/>
    <path d="M0,35 L5,30 L0,25" class="cell_$procdff$63"/>
    <g s:x="30" s:y="10" s:pid="Q"/>
    <g s:x="0" s:y="30" s:pid="CLK"/>
    <g s:x="0" s:y="30" s:pid="C"/>
    <g s:x="0" s:y="10" s:pid="D"/>
  </g>
  <g s:type="dff" transform="translate(945,49)" s:width="30" s:height="40" id="cell_$procdff$64">
    <s:alias val="$dff"/>
    <s:alias val="$_DFF_"/>
    <s:alias val="$_DFF_P_"/>
    <rect width="30" height="40" x="0" y="0" class="cell_$procdff$64"/>
    <path d="M0,35 L5,30 L0,25" class="cell_$procdff$64"/>
    <g s:x="30" s:y="10" s:pid="Q"/>
    <g s:x="0" s:y="30" s:pid="CLK"/>
    <g s:x="0" s:y="30" s:pid="C"/>
    <g s:x="0" s:y="10" s:pid="D"/>
  </g>
  <g s:type="dff" transform="translate(871,623)" s:width="30" s:height="40" id="cell_$procdff$65">
    <s:alias val="$dff"/>
    <s:alias val="$_DFF_"/>
    <s:alias val="$_DFF_P_"/>
    <rect width="30" height="40" x="0" y="0" class="cell_$procdff$65"/>
    <path d="M0,35 L5,30 L0,25" class="cell_$procdff$65"/>
    <g s:x="30" s:y="10" s:pid="Q"/>
    <g s:x="0" s:y="30" s:pid="CLK"/>
    <g s:x="0" s:y="30" s:pid="C"/>
    <g s:x="0" s:y="10" s:pid="D"/>
  </g>
  <g s:type="mux" transform="translate(875.3333333333334,945.5)" s:width="20" s:height="40" id="cell_$procmux$52">
    <s:alias val="$pmux"/>
    <s:alias val="$mux"/>
    <s:alias val="$_MUX_"/>
    <path d="M0,0 L20,10 L20,30 L0,40 Z" class="cell_$procmux$52"/>
    <g s:x="0" s:y="10" s:pid="A"/>
    <g s:x="0" s:y="30" s:pid="B"/>
    <g s:x="10" s:y="35" s:pid="S"/>
    <g s:x="20" s:y="20" s:pid="Y"/>
  </g>
  <g s:type="mux" transform="translate(950,884.5)" s:width="20" s:height="40" id="cell_$procmux$55">
    <s:alias val="$pmux"/>
    <s:alias val="$mux"/>
    <s:alias val="$_MUX_"/>
    <path d="M0,0 L20,10 L20,30 L0,40 Z" class="cell_$procmux$55"/>
    <g s:x="0" s:y="10" s:pid="A"/>
    <g s:x="0" s:y="30" s:pid="B"/>
    <g s:x="10" s:y="35" s:pid="S"/>
    <g s:x="20" s:y="20" s:pid="Y"/>
  </g>
  <g s:type="mux" transform="translate(950,695)" s:width="20" s:height="40" id="cell_$procmux$58">
    <s:alias val="$pmux"/>
    <s:alias val="$mux"/>
    <s:alias val="$_MUX_"/>
    <path d="M0,0 L20,10 L20,30 L0,40 Z" class="cell_$procmux$58"/>
    <g s:x="0" s:y="10" s:pid="A"/>
    <g s:x="0" s:y="30" s:pid="B"/>
    <g s:x="10" s:y="35" s:pid="S"/>
    <g s:x="20" s:y="20" s:pid="Y"/>
  </g>
  <g s:type="sub" transform="translate(119,48)" s:width="25" s:height="25" id="cell_$sub$../Verilog/circularfifobuffer.v:145$27">
    <s:alias val="$sub"/>
    <circle r="12.5" cx="12.5" cy="12.5" class="cell_$sub$../Verilog/circularfifobuffer.v:145$27"/>
    <line x1="7.5" x2="17.5" y1="12.5" y2="12.5" class="cell_$sub$../Verilog/circularfifobuffer.v:145$27"/>
    <g s:x="3" s:y="5" s:pid="A"/>
    <g s:x="3" s:y="20" s:pid="B"/>
    <g s:x="25" s:y="12.5" s:pid="Y"/>
  </g>
  <g s:type="mux" transform="translate(719.6666666666666,427)" s:width="20" s:height="40" id="cell_$ternary$../Verilog/circularfifobuffer.v:101$12">
    <s:alias val="$pmux"/>
    <s:alias val="$mux"/>
    <s:alias val="$_MUX_"/>
    <path d="M0,0 L20,10 L20,30 L0,40 Z" class="cell_$ternary$../Verilog/circularfifobuffer.v:101$12"/>
    <g s:x="0" s:y="10" s:pid="A"/>
    <g s:x="0" s:y="30" s:pid="B"/>
    <g s:x="10" s:y="35" s:pid="S"/>
    <g s:x="20" s:y="20" s:pid="Y"/>
  </g>
  <g s:type="mux" transform="translate(806.3333333333334,613)" s:width="20" s:height="40" id="cell_$ternary$../Verilog/circularfifobuffer.v:103$13">
    <s:alias val="$pmux"/>
    <s:alias val="$mux"/>
    <s:alias val="$_MUX_"/>
    <path d="M0,0 L20,10 L20,30 L0,40 Z" class="cell_$ternary$../Verilog/circularfifobuffer.v:103$13"/>
    <g s:x="0" s:y="10" s:pid="A"/>
    <g s:x="0" s:y="30" s:pid="B"/>
    <g s:x="10" s:y="35" s:pid="S"/>
    <g s:x="20" s:y="20" s:pid="Y"/>
  </g>
  <g s:type="mux" transform="translate(716.3333333333334,222)" s:width="20" s:height="40" id="cell_$ternary$../Verilog/circularfifobuffer.v:119$18">
    <s:alias val="$pmux"/>
    <s:alias val="$mux"/>
    <s:alias val="$_MUX_"/>
    <path d="M0,0 L20,10 L20,30 L0,40 Z" class="cell_$ternary$../Verilog/circularfifobuffer.v:119$18"/>
    <g s:x="0" s:y="10" s:pid="A"/>
    <g s:x="0" s:y="30" s:pid="B"/>
    <g s:x="10" s:y="35" s:pid="S"/>
    <g s:x="20" s:y="20" s:pid="Y"/>
  </g>
  <g s:type="mux" transform="translate(809.6666666666666,212)" s:width="20" s:height="40" id="cell_$ternary$../Verilog/circularfifobuffer.v:121$19">
    <s:alias val="$pmux"/>
    <s:alias val="$mux"/>
    <s:alias val="$_MUX_"/>
    <path d="M0,0 L20,10 L20,30 L0,40 Z" class="cell_$ternary$../Verilog/circularfifobuffer.v:121$19"/>
    <g s:x="0" s:y="10" s:pid="A"/>
    <g s:x="0" s:y="30" s:pid="B"/>
    <g s:x="10" s:y="35" s:pid="S"/>
    <g s:x="20" s:y="20" s:pid="Y"/>
  </g>
  <g s:type="mux" transform="translate(875.3333333333334,39)" s:width="20" s:height="40" id="cell_$ternary$../Verilog/circularfifobuffer.v:123$20">
    <s:alias val="$pmux"/>
    <s:alias val="$mux"/>
    <s:alias val="$_MUX_"/>
    <path d="M0,0 L20,10 L20,30 L0,40 Z" class="cell_$ternary$../Verilog/circularfifobuffer.v:123$20"/>
    <g s:x="0" s:y="10" s:pid="A"/>
    <g s:x="0" s:y="30" s:pid="B"/>
    <g s:x="10" s:y="35" s:pid="S"/>
    <g s:x="20" s:y="20" s:pid="Y"/>
  </g>
  <g s:type="mux" transform="translate(522.3333333333333,357)" s:width="20" s:height="40" id="cell_$ternary$../Verilog/circularfifobuffer.v:133$24">
    <s:alias val="$pmux"/>
    <s:alias val="$mux"/>
    <s:alias val="$_MUX_"/>
    <path d="M0,0 L20,10 L20,30 L0,40 Z" class="cell_$ternary$../Verilog/circularfifobuffer.v:133$24"/>
    <g s:x="0" s:y="10" s:pid="A"/>
    <g s:x="0" s:y="30" s:pid="B"/>
    <g s:x="10" s:y="35" s:pid="S"/>
    <g s:x="20" s:y="20" s:pid="Y"/>
  </g>
  <g s:type="mux" transform="translate(447.3333333333333,772.5)" s:width="20" s:height="40" id="cell_$ternary$../Verilog/circularfifobuffer.v:139$26">
    <s:alias val="$pmux"/>
    <s:alias val="$mux"/>
    <s:alias val="$_MUX_"/>
    <path d="M0,0 L20,10 L20,30 L0,40 Z" class="cell_$ternary$../Verilog/circularfifobuffer.v:139$26"/>
    <g s:x="0" s:y="10" s:pid="A"/>
    <g s:x="0" s:y="30" s:pid="B"/>
    <g s:x="10" s:y="35" s:pid="S"/>
    <g s:x="20" s:y="20" s:pid="Y"/>
  </g>
  <g s:type="mux" transform="translate(312.33333333333337,813.5)" s:width="20" s:height="40" id="cell_$ternary$../Verilog/circularfifobuffer.v:159$31">
    <s:alias val="$pmux"/>
    <s:alias val="$mux"/>
    <s:alias val="$_MUX_"/>
    <path d="M0,0 L20,10 L20,30 L0,40 Z" class="cell_$ternary$../Verilog/circularfifobuffer.v:159$31"/>
    <g s:x="0" s:y="10" s:pid="A"/>
    <g s:x="0" s:y="30" s:pid="B"/>
    <g s:x="10" s:y="35" s:pid="S"/>
    <g s:x="20" s:y="20" s:pid="Y"/>
  </g>
  <g s:type="mux" transform="translate(630.3333333333334,437)" s:width="20" s:height="40" id="cell_$ternary$../Verilog/circularfifobuffer.v:99$11">
    <s:alias val="$pmux"/>
    <s:alias val="$mux"/>
    <s:alias val="$_MUX_"/>
    <path d="M0,0 L20,10 L20,30 L0,40 Z" class="cell_$ternary$../Verilog/circularfifobuffer.v:99$11"/>
    <g s:x="0" s:y="10" s:pid="A"/>
    <g s:x="0" s:y="30" s:pid="B"/>
    <g s:x="10" s:y="35" s:pid="S"/>
    <g s:x="20" s:y="20" s:pid="Y"/>
  </g>
  <g s:type="generic" transform="translate(1058,752)" s:width="30" s:height="40" id="cell_ram">
    <text x="15" y="-4" class="nodelabel cell_ram" s:attribute="ref">$mem_v2</text>
    <rect width="30" height="180" s:generic="body" class="cell_ram"/>
    <g transform="translate(0,10)" s:x="0" s:y="10" s:pid="in0" id="port_ram~RD_ADDR">
      <text x="-3" y="-4" class="inputPortLabel cell_ram">RD_ADDR</text>
    </g>
    <g transform="translate(0,30)" s:x="0" s:y="10" s:pid="in0" id="port_ram~RD_ARST">
      <text x="-3" y="-4" class="inputPortLabel cell_ram">RD_ARST</text>
    </g>
    <g transform="translate(0,50)" s:x="0" s:y="10" s:pid="in0" id="port_ram~RD_CLK">
      <text x="-3" y="-4" class="inputPortLabel cell_ram">RD_CLK</text>
    </g>
    <g transform="translate(0,70)" s:x="0" s:y="10" s:pid="in0" id="port_ram~RD_EN">
      <text x="-3" y="-4" class="inputPortLabel cell_ram">RD_EN</text>
    </g>
    <g transform="translate(0,90)" s:x="0" s:y="10" s:pid="in0" id="port_ram~RD_SRST">
      <text x="-3" y="-4" class="inputPortLabel cell_ram">RD_SRST</text>
    </g>
    <g transform="translate(0,110)" s:x="0" s:y="10" s:pid="in0" id="port_ram~WR_ADDR">
      <text x="-3" y="-4" class="inputPortLabel cell_ram">WR_ADDR</text>
    </g>
    <g transform="translate(0,130)" s:x="0" s:y="10" s:pid="in0" id="port_ram~WR_CLK">
      <text x="-3" y="-4" class="inputPortLabel cell_ram">WR_CLK</text>
    </g>
    <g transform="translate(0,150)" s:x="0" s:y="10" s:pid="in0" id="port_ram~WR_DATA">
      <text x="-3" y="-4" class="inputPortLabel cell_ram">WR_DATA</text>
    </g>
    <g transform="translate(0,170)" s:x="0" s:y="10" s:pid="in0" id="port_ram~WR_EN">
      <text x="-3" y="-4" class="inputPortLabel cell_ram">WR_EN</text>
    </g>
    <g transform="translate(30,10)" s:x="30" s:y="10" s:pid="out0" id="port_ram~RD_DATA">
      <text x="5" y="-4" style="fill:#000; stroke:none" class="cell_ram">RD_DATA</text>
    </g>
  </g>
  <g s:type="inputExt" transform="translate(803,843.5)" s:width="30" s:height="20" id="cell_clk">
    <text x="15" y="-4" class="nodelabel cell_clk" s:attribute="ref">clk</text>
    <s:alias val="$_inputExt_"/>
    <path d="M0,0 L0,20 L15,20 L30,10 L15,0 Z" class="cell_clk"/>
    <g s:x="28" s:y="10" s:pid="Y"/>
  </g>
  <g s:type="inputExt" transform="translate(713,582)" s:width="30" s:height="20" id="cell_rst">
    <text x="15" y="-4" class="nodelabel cell_rst" s:attribute="ref">rst</text>
    <s:alias val="$_inputExt_"/>
    <path d="M0,0 L0,20 L15,20 L30,10 L15,0 Z" class="cell_rst"/>
    <g s:x="28" s:y="10" s:pid="Y"/>
  </g>
  <g s:type="inputExt" transform="translate(509,727.5)" s:width="30" s:height="20" id="cell_write_fifo">
    <text x="15" y="-4" class="nodelabel cell_write_fifo" s:attribute="ref">write_fifo</text>
    <s:alias val="$_inputExt_"/>
    <path d="M0,0 L0,20 L15,20 L30,10 L15,0 Z" class="cell_write_fifo"/>
    <g s:x="28" s:y="10" s:pid="Y"/>
  </g>
  <g s:type="inputExt" transform="translate(619,507)" s:width="30" s:height="20" id="cell_read_fifo">
    <text x="15" y="-4" class="nodelabel cell_read_fifo" s:attribute="ref">read_fifo</text>
    <s:alias val="$_inputExt_"/>
    <path d="M0,0 L0,20 L15,20 L30,10 L15,0 Z" class="cell_read_fifo"/>
    <g s:x="28" s:y="10" s:pid="Y"/>
  </g>
  <g s:type="inputExt" transform="translate(868,904.5)" s:width="30" s:height="20" id="cell_data_in">
    <text x="15" y="-4" class="nodelabel cell_data_in" s:attribute="ref">data_in</text>
    <s:alias val="$_inputExt_"/>
    <path d="M0,0 L0,20 L15,20 L30,10 L15,0 Z" class="cell_data_in"/>
    <g s:x="28" s:y="10" s:pid="Y"/>
  </g>
  <g s:type="outputExt" transform="translate(1232,752.5)" s:width="30" s:height="20" id="cell_data_out">
    <text x="15" y="-4" class="nodelabel cell_data_out" s:attribute="ref">data_out</text>
    <s:alias val="$_outputExt_"/>
    <path d="M30,0 L30,20 L15,20 L0,10 L15,0 Z" class="cell_data_out"/>
    <g s:x="0" s:y="10" s:pid="A"/>
  </g>
  <g s:type="constant" transform="translate(184,307)" s:width="30" s:height="20" id="cell_1">
    <text x="15" y="-4" class="nodelabel cell_1" s:attribute="ref">1</text>
    <s:alias val="$_constant_"/>
    <rect width="30" height="20" class="cell_1"/>
    <g s:x="30" s:y="10" s:pid="Y"/>
  </g>
  <g s:type="constant" transform="translate(114,136)" s:width="30" s:height="20" id="cell_1000">
    <text x="15" y="-4" class="nodelabel cell_1000" s:attribute="ref">0x8</text>
    <s:alias val="$_constant_"/>
    <rect width="30" height="20" class="cell_1000"/>
    <g s:x="30" s:y="10" s:pid="Y"/>
  </g>
  <g s:type="constant" transform="translate(309,407)" s:width="30" s:height="20" id="cell_0000000000000000000000000000">
    <text x="15" y="-4" class="nodelabel cell_0000000000000000000000000000" s:attribute="ref">0x0</text>
    <s:alias val="$_constant_"/>
    <rect width="30" height="20" class="cell_0000000000000000000000000000"/>
    <g s:x="30" s:y="10" s:pid="Y"/>
  </g>
  <g s:type="constant" transform="translate(374,674)" s:width="30" s:height="20" id="cell_0">
    <text x="15" y="-4" class="nodelabel cell_0" s:attribute="ref">0</text>
    <s:alias val="$_constant_"/>
    <rect width="30" height="20" class="cell_0"/>
    <g s:x="30" s:y="10" s:pid="Y"/>
  </g>
  <g s:type="constant" transform="translate(509,242)" s:width="30" s:height="20" id="cell_0000">
    <text x="15" y="-4" class="nodelabel cell_0000" s:attribute="ref">0x0</text>
    <s:alias val="$_constant_"/>
    <rect width="30" height="20" class="cell_0000"/>
    <g s:x="30" s:y="10" s:pid="Y"/>
  </g>
  <g s:type="join" transform="translate(393,386.5)" s:width="4" s:height="40" id="cell_$join$,55,56,57,58,121,122,123,124,125,126,127,128,129,130,131,132,133,134,135,136,137,138,139,140,141,142,143,144,145,146,147,148,">
    <rect width="5" height="40" class="splitjoinBody" s:generic="body"/>
    <s:alias val="$_join_"/>
    <g s:x="5" s:y="20" s:pid="out"/>
    <g transform="translate(0,10)" s:x="0" s:y="10" s:pid="in0">
      <text x="-3" y="-4" class="inputPortLabel">0:3</text>
    </g>
    <g transform="translate(0,30)" s:x="0" s:y="10" s:pid="in0">
      <text x="-3" y="-4" class="inputPortLabel">4:31</text>
    </g>
  </g>
  <g s:type="join" transform="translate(66,55)" s:width="4" s:height="40" id="cell_$join$,x,x,x,x,x,x,x,x,">
    <rect width="5" height="40" class="splitjoinBody" s:generic="body"/>
    <s:alias val="$_join_"/>
    <g s:x="5" s:y="20" s:pid="out"/>
    <g transform="translate(0,10)" s:x="0" s:y="10" s:pid="in0">
      <text x="-3" y="-4" class="inputPortLabel">0:3</text>
    </g>
  </g>
  <g s:type="join" transform="translate(948.7142857142857,977.5)" s:width="4" s:height="40" id="cell_$join$,81,81,81,81,81,81,81,81,">
    <rect width="5" height="160" class="splitjoinBody" s:generic="body"/>
    <s:alias val="$_join_"/>
    <g s:x="5" s:y="20" s:pid="out"/>
    <g transform="translate(0,10)" s:x="0" s:y="10" s:pid="in0">
      <text x="-3" y="-4" class="inputPortLabel">0</text>
    </g>
    <g transform="translate(0,30)" s:x="0" s:y="10" s:pid="in0">
      <text x="-3" y="-4" class="inputPortLabel">1</text>
    </g>
    <g transform="translate(0,50)" s:x="0" s:y="10" s:pid="in0">
      <text x="-3" y="-4" class="inputPortLabel">2</text>
    </g>
    <g transform="translate(0,70)" s:x="0" s:y="10" s:pid="in0">
      <text x="-3" y="-4" class="inputPortLabel">3</text>
    </g>
    <g transform="translate(0,90)" s:x="0" s:y="10" s:pid="in0">
      <text x="-3" y="-4" class="inputPortLabel">4</text>
    </g>
    <g transform="translate(0,110)" s:x="0" s:y="10" s:pid="in0">
      <text x="-3" y="-4" class="inputPortLabel">5</text>
    </g>
    <g transform="translate(0,130)" s:x="0" s:y="10" s:pid="in0">
      <text x="-3" y="-4" class="inputPortLabel">6</text>
    </g>
    <g transform="translate(0,150)" s:x="0" s:y="10" s:pid="in0">
      <text x="-3" y="-4" class="inputPortLabel">7</text>
    </g>
  </g>
  <g s:type="split" transform="translate(57,12)" s:width="5" s:height="40" id="cell_$split$,x,x,x,x,">
    <rect width="5" height="20" class="splitjoinBody" s:generic="body"/>
    <s:alias val="$_split_"/>
    <g s:x="0" s:y="20" s:pid="in"/>
    <g transform="translate(4,10)" s:x="4" s:y="10" s:pid="out0">
      <text x="5" y="-4">0</text>
    </g>
  </g>
  <line x1="975" x2="1005" y1="59" y2="59" class="net_22,23,24,25"/>
  <line x1="1005" x2="1005" y1="59" y2="28" class="net_22,23,24,25"/>
  <line x1="1005" x2="609" y1="28" y2="28" class="net_22,23,24,25"/>
  <line x1="609" x2="609" y1="28" y2="85" class="net_22,23,24,25"/>
  <circle cx="609" cy="85" r="2" style="fill:#000" class="net_22,23,24,25"/>
  <line x1="609" x2="633.3333333333334" y1="85" y2="85" class="net_22,23,24,25"/>
  <line x1="975" x2="1005" y1="59" y2="59" class="net_22,23,24,25"/>
  <line x1="1005" x2="1005" y1="59" y2="28" class="net_22,23,24,25"/>
  <line x1="1005" x2="609" y1="28" y2="28" class="net_22,23,24,25"/>
  <line x1="609" x2="609" y1="28" y2="131" class="net_22,23,24,25"/>
  <circle cx="609" cy="28" r="2" style="fill:#000" class="net_22,23,24,25"/>
  <line x1="609" x2="633.3333333333334" y1="131" y2="131" class="net_22,23,24,25"/>
  <line x1="975" x2="1207" y1="59" y2="59" class="net_22,23,24,25"/>
  <line x1="1207" x2="1207" y1="59" y2="32" class="net_22,23,24,25"/>
  <line x1="1207" x2="1235" y1="32" y2="32" class="net_22,23,24,25"/>
  <line x1="975" x2="1005" y1="59" y2="59" class="net_22,23,24,25"/>
  <line x1="1005" x2="1005" y1="59" y2="28" class="net_22,23,24,25"/>
  <line x1="1005" x2="84" y1="28" y2="28" class="net_22,23,24,25"/>
  <line x1="84" x2="84" y1="28" y2="68" class="net_22,23,24,25"/>
  <circle cx="1005" cy="59" r="2" style="fill:#000" class="net_22,23,24,25"/>
  <line x1="84" x2="122" y1="68" y2="68" class="net_22,23,24,25"/>
  <line x1="975" x2="1005" y1="59" y2="59" class="net_22,23,24,25"/>
  <line x1="1005" x2="1005" y1="59" y2="673" class="net_22,23,24,25"/>
  <line x1="1005" x2="763" y1="673" y2="673" class="net_22,23,24,25"/>
  <line x1="763" x2="763" y1="673" y2="222" class="net_22,23,24,25"/>
  <circle cx="1005" cy="673" r="2" style="fill:#000" class="net_22,23,24,25"/>
  <line x1="763" x2="809.6666666666666" y1="222" y2="222" class="net_22,23,24,25"/>
  <line x1="975" x2="1005" y1="59" y2="59" class="net_22,23,24,25"/>
  <line x1="1005" x2="1005" y1="59" y2="762.5" class="net_22,23,24,25"/>
  <line x1="1005" x2="1058" y1="762.5" y2="762.5" class="net_22,23,24,25"/>
  <line x1="214" x2="224" y1="317" y2="317" class="net_110"/>
  <line x1="224" x2="224" y1="317" y2="100" class="net_110"/>
  <circle cx="224" cy="317" r="2" style="fill:#000" class="net_110"/>
  <line x1="224" x2="633.3333333333334" y1="100" y2="100" class="net_110"/>
  <line x1="214" x2="224" y1="317" y2="317" class="net_110"/>
  <line x1="224" x2="224" y1="317" y2="862" class="net_110"/>
  <circle cx="224" cy="862" r="2" style="fill:#000" class="net_110"/>
  <line x1="224" x2="252" y1="862" y2="862" class="net_110"/>
  <line x1="214" x2="525.3333333333333" y1="317" y2="317" class="net_110"/>
  <line x1="214" x2="224" y1="317" y2="317" class="net_110"/>
  <line x1="224" x2="224" y1="317" y2="877" class="net_110"/>
  <line x1="224" x2="359" y1="877" y2="877" class="net_110"/>
  <line x1="359" x2="359" y1="877" y2="802.5" class="net_110"/>
  <line x1="359" x2="414" y1="802.5" y2="802.5" class="net_110"/>
  <line x1="414" x2="414" y1="802.5" y2="966.5" class="net_110"/>
  <line x1="414" x2="843" y1="966.5" y2="966.5" class="net_110"/>
  <line x1="843" x2="843" y1="966.5" y2="975.5" class="net_110"/>
  <circle cx="359" cy="802.5" r="2" style="fill:#000" class="net_110"/>
  <line x1="843" x2="875.3333333333334" y1="975.5" y2="975.5" class="net_110"/>
  <line x1="214" x2="434" y1="317" y2="317" class="net_110"/>
  <line x1="434" x2="434" y1="317" y2="378" class="net_110"/>
  <line x1="434" x2="494" y1="378" y2="378" class="net_110"/>
  <line x1="494" x2="494" y1="378" y2="387" class="net_110"/>
  <circle cx="434" cy="317" r="2" style="fill:#000" class="net_110"/>
  <line x1="494" x2="522.3333333333333" y1="387" y2="387" class="net_110"/>
  <line x1="214" x2="284" y1="317" y2="317" class="net_110"/>
  <line x1="284" x2="284" y1="317" y2="802.5" class="net_110"/>
  <circle cx="284" cy="317" r="2" style="fill:#000" class="net_110"/>
  <line x1="284" x2="447.3333333333333" y1="802.5" y2="802.5" class="net_110"/>
  <line x1="214" x2="284" y1="317" y2="317" class="net_110"/>
  <line x1="284" x2="284" y1="317" y2="802.5" class="net_110"/>
  <line x1="284" x2="414" y1="802.5" y2="802.5" class="net_110"/>
  <line x1="414" x2="414" y1="802.5" y2="822.5" class="net_110"/>
  <circle cx="414" cy="802.5" r="2" style="fill:#000" class="net_110"/>
  <circle cx="414" cy="822.5" r="2" style="fill:#000" class="net_110"/>
  <line x1="414" x2="1058" y1="822.5" y2="822.5" class="net_110"/>
  <line x1="144" x2="164" y1="60.5" y2="60.5" class="net_30,31,32,33"/>
  <line x1="164" x2="164" y1="60.5" y2="839.5" class="net_30,31,32,33"/>
  <line x1="164" x2="188.66666666666669" y1="839.5" y2="839.5" class="net_30,31,32,33"/>
  <line x1="144" x2="164" y1="60.5" y2="60.5" class="net_30,31,32,33"/>
  <line x1="164" x2="164" y1="60.5" y2="823.5" class="net_30,31,32,33"/>
  <circle cx="164" cy="823.5" r="2" style="fill:#000" class="net_30,31,32,33"/>
  <line x1="164" x2="312.33333333333337" y1="823.5" y2="823.5" class="net_30,31,32,33"/>
  <line x1="144" x2="154" y1="146" y2="146" class="net_111,112,113,114"/>
  <line x1="154" x2="154" y1="146" y2="854.5" class="net_111,112,113,114"/>
  <circle cx="154" cy="146" r="2" style="fill:#000" class="net_111,112,113,114"/>
  <circle cx="154" cy="854.5" r="2" style="fill:#000" class="net_111,112,113,114"/>
  <line x1="154" x2="188.66666666666669" y1="854.5" y2="854.5" class="net_111,112,113,114"/>
  <line x1="144" x2="633.3333333333334" y1="146" y2="146" class="net_111,112,113,114"/>
  <line x1="144" x2="154" y1="146" y2="146" class="net_111,112,113,114"/>
  <line x1="154" x2="154" y1="146" y2="1199.5" class="net_111,112,113,114"/>
  <line x1="154" x2="382" y1="1199.5" y2="1199.5" class="net_111,112,113,114"/>
  <line x1="144" x2="154" y1="146" y2="146" class="net_111,112,113,114"/>
  <line x1="154" x2="154" y1="146" y2="192" class="net_111,112,113,114"/>
  <circle cx="154" cy="192" r="2" style="fill:#000" class="net_111,112,113,114"/>
  <line x1="154" x2="525.3333333333333" y1="192" y2="192" class="net_111,112,113,114"/>
  <line x1="210.66666666666669" x2="252" y1="847" y2="847" class="net_34,35,36,37"/>
  <line x1="901" x2="920" y1="633" y2="633" class="net_42,43,44,45"/>
  <line x1="920" x2="920" y1="633" y2="115" class="net_42,43,44,45"/>
  <line x1="920" x2="753" y1="115" y2="115" class="net_42,43,44,45"/>
  <line x1="753" x2="753" y1="115" y2="417" class="net_42,43,44,45"/>
  <line x1="753" x2="484" y1="417" y2="417" class="net_42,43,44,45"/>
  <line x1="484" x2="484" y1="417" y2="302" class="net_42,43,44,45"/>
  <line x1="484" x2="525.3333333333333" y1="302" y2="302" class="net_42,43,44,45"/>
  <line x1="901" x2="920" y1="633" y2="633" class="net_42,43,44,45"/>
  <line x1="920" x2="920" y1="633" y2="115" class="net_42,43,44,45"/>
  <line x1="920" x2="494" y1="115" y2="115" class="net_42,43,44,45"/>
  <line x1="494" x2="494" y1="115" y2="177" class="net_42,43,44,45"/>
  <circle cx="920" cy="115" r="2" style="fill:#000" class="net_42,43,44,45"/>
  <circle cx="920" cy="633" r="2" style="fill:#000" class="net_42,43,44,45"/>
  <line x1="494" x2="525.3333333333333" y1="177" y2="177" class="net_42,43,44,45"/>
  <line x1="901" x2="920" y1="633" y2="633" class="net_42,43,44,45"/>
  <line x1="920" x2="920" y1="633" y2="17" class="net_42,43,44,45"/>
  <line x1="920" x2="1235" y1="17" y2="17" class="net_42,43,44,45"/>
  <line x1="901" x2="920" y1="633" y2="633" class="net_42,43,44,45"/>
  <line x1="920" x2="920" y1="633" y2="725" class="net_42,43,44,45"/>
  <line x1="920" x2="950" y1="725" y2="725" class="net_42,43,44,45"/>
  <line x1="901" x2="920" y1="633" y2="633" class="net_42,43,44,45"/>
  <line x1="920" x2="920" y1="633" y2="115" class="net_42,43,44,45"/>
  <line x1="920" x2="683" y1="115" y2="115" class="net_42,43,44,45"/>
  <line x1="683" x2="683" y1="115" y2="161" class="net_42,43,44,45"/>
  <line x1="683" x2="174" y1="161" y2="161" class="net_42,43,44,45"/>
  <line x1="174" x2="174" y1="161" y2="38" class="net_42,43,44,45"/>
  <line x1="174" x2="94" y1="38" y2="38" class="net_42,43,44,45"/>
  <line x1="94" x2="94" y1="38" y2="53" class="net_42,43,44,45"/>
  <circle cx="683" cy="115" r="2" style="fill:#000" class="net_42,43,44,45"/>
  <line x1="94" x2="122" y1="53" y2="53" class="net_42,43,44,45"/>
  <line x1="901" x2="920" y1="633" y2="633" class="net_42,43,44,45"/>
  <line x1="920" x2="920" y1="633" y2="115" class="net_42,43,44,45"/>
  <line x1="920" x2="753" y1="115" y2="115" class="net_42,43,44,45"/>
  <line x1="753" x2="753" y1="115" y2="417" class="net_42,43,44,45"/>
  <line x1="753" x2="683" y1="417" y2="417" class="net_42,43,44,45"/>
  <line x1="683" x2="683" y1="417" y2="437" class="net_42,43,44,45"/>
  <circle cx="683" cy="417" r="2" style="fill:#000" class="net_42,43,44,45"/>
  <circle cx="753" cy="115" r="2" style="fill:#000" class="net_42,43,44,45"/>
  <line x1="683" x2="719.6666666666666" y1="437" y2="437" class="net_42,43,44,45"/>
  <line x1="647" x2="713" y1="517" y2="517" class="net_5"/>
  <line x1="656" x2="703" y1="572" y2="572" class="net_50"/>
  <line x1="703" x2="703" y1="572" y2="532" class="net_50"/>
  <line x1="703" x2="713" y1="532" y2="532" class="net_50"/>
  <line x1="537" x2="627" y1="737.5" y2="737.5" class="net_4"/>
  <line x1="549" x2="579" y1="792.5" y2="792.5" class="net_52"/>
  <line x1="579" x2="579" y1="792.5" y2="752.5" class="net_52"/>
  <line x1="579" x2="627" y1="752.5" y2="752.5" class="net_52"/>
  <line x1="399" x2="444" y1="407" y2="407" class="net_55,56,57,58,121,122,123,124,125,126,127,128,129,130,131,132,133,134,135,136,137,138,139,140,141,142,143,144,145,146,147,148"/>
  <line x1="332.33333333333337" x2="349" y1="833.5" y2="833.5" class="net_55,56,57,58"/>
  <line x1="349" x2="349" y1="833.5" y2="1184.5" class="net_55,56,57,58"/>
  <circle cx="349" cy="833.5" r="2" style="fill:#000" class="net_55,56,57,58"/>
  <line x1="349" x2="382" y1="1184.5" y2="1184.5" class="net_55,56,57,58"/>
  <line x1="332.33333333333337" x2="349" y1="833.5" y2="833.5" class="net_55,56,57,58"/>
  <line x1="349" x2="349" y1="833.5" y2="397" class="net_55,56,57,58"/>
  <line x1="349" x2="393" y1="397" y2="397" class="net_55,56,57,58"/>
  <line x1="542.3333333333333" x2="579" y1="377" y2="377" class="net_63"/>
  <line x1="579" x2="579" y1="377" y2="572" class="net_63"/>
  <line x1="579" x2="631" y1="572" y2="572" class="net_63"/>
  <line x1="467.3333333333333" x2="524" y1="792.5" y2="792.5" class="net_64"/>
  <line x1="831" x2="853" y1="853.5" y2="853.5" class="net_2"/>
  <line x1="853" x2="853" y1="853.5" y2="1157.5" class="net_2"/>
  <line x1="853" x2="1142" y1="1157.5" y2="1157.5" class="net_2"/>
  <line x1="1142" x2="1142" y1="1157.5" y2="782.5" class="net_2"/>
  <circle cx="853" cy="853.5" r="2" style="fill:#000" class="net_2"/>
  <line x1="1142" x2="1167" y1="782.5" y2="782.5" class="net_2"/>
  <line x1="831" x2="853" y1="853.5" y2="853.5" class="net_2"/>
  <line x1="853" x2="853" y1="853.5" y2="125" class="net_2"/>
  <line x1="853" x2="930" y1="125" y2="125" class="net_2"/>
  <line x1="930" x2="930" y1="125" y2="79" class="net_2"/>
  <line x1="930" x2="945" y1="79" y2="79" class="net_2"/>
  <line x1="831" x2="853" y1="853.5" y2="853.5" class="net_2"/>
  <line x1="853" x2="853" y1="853.5" y2="653" class="net_2"/>
  <circle cx="853" cy="653" r="2" style="fill:#000" class="net_2"/>
  <line x1="853" x2="871" y1="653" y2="653" class="net_2"/>
  <line x1="831" x2="853" y1="853.5" y2="853.5" class="net_2"/>
  <line x1="853" x2="853" y1="853.5" y2="1157.5" class="net_2"/>
  <line x1="853" x2="985" y1="1157.5" y2="1157.5" class="net_2"/>
  <line x1="985" x2="985" y1="1157.5" y2="882.5" class="net_2"/>
  <circle cx="985" cy="1157.5" r="2" style="fill:#000" class="net_2"/>
  <line x1="985" x2="1058" y1="882.5" y2="882.5" class="net_2"/>
  <line x1="1089" x2="1167" y1="762.5" y2="762.5" class="net_65,66,67,68,69,70,71,72"/>
  <line x1="895.3333333333334" x2="945" y1="59" y2="59" class="net_73,74,75,76"/>
  <line x1="826.3333333333334" x2="871" y1="633" y2="633" class="net_77,78,79,80"/>
  <line x1="404" x2="424" y1="684" y2="684" class="net_157"/>
  <line x1="424" x2="424" y1="684" y2="873.5" class="net_157"/>
  <line x1="424" x2="683" y1="873.5" y2="873.5" class="net_157"/>
  <line x1="683" x2="683" y1="873.5" y2="955.5" class="net_157"/>
  <circle cx="424" cy="684" r="2" style="fill:#000" class="net_157"/>
  <circle cx="683" cy="873.5" r="2" style="fill:#000" class="net_157"/>
  <line x1="683" x2="875.3333333333334" y1="955.5" y2="955.5" class="net_157"/>
  <line x1="404" x2="424" y1="684" y2="684" class="net_157"/>
  <line x1="424" x2="424" y1="684" y2="367" class="net_157"/>
  <line x1="424" x2="522.3333333333333" y1="367" y2="367" class="net_157"/>
  <line x1="404" x2="424" y1="684" y2="684" class="net_157"/>
  <line x1="424" x2="424" y1="684" y2="782.5" class="net_157"/>
  <circle cx="424" cy="782.5" r="2" style="fill:#000" class="net_157"/>
  <line x1="424" x2="447.3333333333333" y1="782.5" y2="782.5" class="net_157"/>
  <line x1="404" x2="995" y1="684" y2="684" class="net_157"/>
  <line x1="995" x2="995" y1="684" y2="782.5" class="net_157"/>
  <line x1="995" x2="1058" y1="782.5" y2="782.5" class="net_157"/>
  <line x1="404" x2="424" y1="684" y2="684" class="net_157"/>
  <line x1="424" x2="424" y1="684" y2="873.5" class="net_157"/>
  <line x1="424" x2="995" y1="873.5" y2="873.5" class="net_157"/>
  <line x1="995" x2="995" y1="873.5" y2="842.5" class="net_157"/>
  <line x1="995" x2="1058" y1="842.5" y2="842.5" class="net_157"/>
  <line x1="657" x2="693" y1="745" y2="745" class="net_53"/>
  <line x1="693" x2="693" y1="745" y2="995.5" class="net_53"/>
  <line x1="693" x2="885.3333333333334" y1="995.5" y2="995.5" class="net_53"/>
  <circle cx="693" cy="745" r="2" style="fill:#000" class="net_53"/>
  <line x1="885.3333333333334" x2="885.3333333333334" y1="995.5" y2="980.5" class="net_53"/>
  <line x1="657" x2="693" y1="745" y2="745" class="net_53"/>
  <line x1="693" x2="693" y1="745" y2="934.5" class="net_53"/>
  <line x1="693" x2="960" y1="934.5" y2="934.5" class="net_53"/>
  <circle cx="693" cy="934.5" r="2" style="fill:#000" class="net_53"/>
  <line x1="960" x2="960" y1="934.5" y2="919.5" class="net_53"/>
  <line x1="657" x2="960" y1="745" y2="745" class="net_53"/>
  <line x1="960" x2="960" y1="745" y2="730" class="net_53"/>
  <line x1="657" x2="693" y1="745" y2="745" class="net_53"/>
  <line x1="693" x2="693" y1="745" y2="502" class="net_53"/>
  <line x1="693" x2="729.6666666666666" y1="502" y2="502" class="net_53"/>
  <line x1="729.6666666666666" x2="729.6666666666666" y1="502" y2="462" class="net_53"/>
  <line x1="896" x2="950" y1="914.5" y2="914.5" class="net_6,7,8,9,10,11,12,13"/>
  <line x1="650.3333333333334" x2="719.6666666666666" y1="457" y2="457" class="net_94,95,96,97"/>
  <line x1="739.6666666666666" x2="793" y1="447" y2="447" class="net_98,99,100,101"/>
  <line x1="793" x2="793" y1="447" y2="623" class="net_98,99,100,101"/>
  <line x1="793" x2="806.3333333333334" y1="623" y2="623" class="net_98,99,100,101"/>
  <line x1="539" x2="599" y1="252" y2="252" class="net_159,160,161,162"/>
  <line x1="599" x2="599" y1="252" y2="643" class="net_159,160,161,162"/>
  <circle cx="599" cy="252" r="2" style="fill:#000" class="net_159,160,161,162"/>
  <line x1="599" x2="806.3333333333334" y1="643" y2="643" class="net_159,160,161,162"/>
  <line x1="539" x2="716.3333333333334" y1="252" y2="252" class="net_159,160,161,162"/>
  <line x1="539" x2="599" y1="252" y2="252" class="net_159,160,161,162"/>
  <line x1="599" x2="599" y1="252" y2="69" class="net_159,160,161,162"/>
  <line x1="599" x2="875.3333333333334" y1="69" y2="69" class="net_159,160,161,162"/>
  <line x1="539" x2="599" y1="252" y2="252" class="net_159,160,161,162"/>
  <line x1="599" x2="599" y1="252" y2="467" class="net_159,160,161,162"/>
  <circle cx="599" cy="467" r="2" style="fill:#000" class="net_159,160,161,162"/>
  <line x1="599" x2="630.3333333333334" y1="467" y2="467" class="net_159,160,161,162"/>
  <line x1="741" x2="773" y1="592" y2="592" class="net_3"/>
  <line x1="773" x2="773" y1="592" y2="663" class="net_3"/>
  <line x1="773" x2="816.3333333333334" y1="663" y2="663" class="net_3"/>
  <circle cx="773" cy="592" r="2" style="fill:#000" class="net_3"/>
  <line x1="816.3333333333334" x2="816.3333333333334" y1="663" y2="648" class="net_3"/>
  <line x1="741" x2="885.3333333333334" y1="592" y2="592" class="net_3"/>
  <line x1="885.3333333333334" x2="885.3333333333334" y1="592" y2="74" class="net_3"/>
  <line x1="655.3333333333334" x2="703" y1="92.5" y2="92.5" class="net_26,27,28,29"/>
  <line x1="703" x2="703" y1="92.5" y2="232" class="net_26,27,28,29"/>
  <line x1="703" x2="716.3333333333334" y1="232" y2="232" class="net_26,27,28,29"/>
  <line x1="655.3333333333334" x2="693" y1="138.5" y2="138.5" class="net_54"/>
  <line x1="693" x2="693" y1="138.5" y2="272" class="net_54"/>
  <line x1="693" x2="726.3333333333334" y1="272" y2="272" class="net_54"/>
  <line x1="726.3333333333334" x2="726.3333333333334" y1="272" y2="257" class="net_54"/>
  <line x1="736.3333333333334" x2="809.6666666666666" y1="242" y2="242" class="net_102,103,104,105"/>
  <line x1="743" x2="783" y1="524.5" y2="524.5" class="net_51"/>
  <line x1="783" x2="783" y1="524.5" y2="603" class="net_51"/>
  <line x1="783" x2="819.6666666666666" y1="603" y2="603" class="net_51"/>
  <line x1="819.6666666666666" x2="819.6666666666666" y1="603" y2="247" class="net_51"/>
  <line x1="829.6666666666666" x2="843" y1="232" y2="232" class="net_106,107,108,109"/>
  <line x1="843" x2="843" y1="232" y2="49" class="net_106,107,108,109"/>
  <line x1="843" x2="875.3333333333334" y1="49" y2="49" class="net_106,107,108,109"/>
  <line x1="469" x2="532.3333333333333" y1="407" y2="407" class="net_59"/>
  <line x1="532.3333333333333" x2="532.3333333333333" y1="407" y2="392" class="net_59"/>
  <line x1="404" x2="457.3333333333333" y1="1192" y2="1192" class="net_60"/>
  <line x1="457.3333333333333" x2="457.3333333333333" y1="1192" y2="807.5" class="net_60"/>
  <line x1="274" x2="284" y1="854.5" y2="854.5" class="net_38,39,40,41"/>
  <line x1="284" x2="284" y1="854.5" y2="843.5" class="net_38,39,40,41"/>
  <line x1="284" x2="312.33333333333337" y1="843.5" y2="843.5" class="net_38,39,40,41"/>
  <line x1="1257" x2="1290" y1="24.5" y2="24.5" class="net_62"/>
  <line x1="1290" x2="1290" y1="24.5" y2="1168.5" class="net_62"/>
  <line x1="1290" x2="322.33333333333337" y1="1168.5" y2="1168.5" class="net_62"/>
  <line x1="322.33333333333337" x2="322.33333333333337" y1="1168.5" y2="848.5" class="net_62"/>
  <line x1="547.3333333333333" x2="609" y1="309.5" y2="309.5" class="net_46,47,48,49"/>
  <line x1="609" x2="609" y1="309.5" y2="447" class="net_46,47,48,49"/>
  <line x1="609" x2="630.3333333333334" y1="447" y2="447" class="net_46,47,48,49"/>
  <line x1="547.3333333333333" x2="589" y1="184.5" y2="184.5" class="net_61"/>
  <line x1="589" x2="589" y1="184.5" y2="487" class="net_61"/>
  <line x1="589" x2="640.3333333333334" y1="487" y2="487" class="net_61"/>
  <line x1="640.3333333333334" x2="640.3333333333334" y1="487" y2="472" class="net_61"/>
  <line x1="970" x2="985" y1="715" y2="715" class="net_90,91,92,93"/>
  <line x1="985" x2="985" y1="715" y2="862.5" class="net_90,91,92,93"/>
  <line x1="985" x2="1058" y1="862.5" y2="862.5" class="net_90,91,92,93"/>
  <line x1="970" x2="995" y1="904.5" y2="904.5" class="net_82,83,84,85,86,87,88,89"/>
  <line x1="995" x2="995" y1="904.5" y2="902.5" class="net_82,83,84,85,86,87,88,89"/>
  <line x1="995" x2="1058" y1="902.5" y2="902.5" class="net_82,83,84,85,86,87,88,89"/>
  <line x1="954.7142857142857" x2="995" y1="998" y2="998" class="net_81,81,81,81,81,81,81,81"/>
  <line x1="995" x2="995" y1="998" y2="922.5" class="net_81,81,81,81,81,81,81,81"/>
  <line x1="995" x2="1058" y1="922.5" y2="922.5" class="net_81,81,81,81,81,81,81,81"/>
  <line x1="1197" x2="1232" y1="762.5" y2="762.5" class="net_14,15,16,17,18,19,20,21"/>
  <line x1="339" x2="393" y1="417" y2="417" class="net_121,122,123,124,125,126,127,128,129,130,131,132,133,134,135,136,137,138,139,140,141,142,143,144,145,146,147,148"/>
  <line x1="22" x2="22" y1="45" y2="65.5" class="net_NaN,NaN,NaN,NaN"/>
  <line x1="22" x2="66" y1="65.5" y2="65.5" class="net_NaN,NaN,NaN,NaN"/>
  <line x1="22" x2="57.5" y1="45" y2="33" class="net_NaN,NaN,NaN,NaN"/>
  <line x1="895.3333333333334" x2="949.2142857142857" y1="965.5" y2="965.5" class="net_81"/>
  <line x1="949.2142857142857" x2="949.2142857142857" y1="965.5" y2="987.5" class="net_81"/>
  <line x1="895.3333333333334" x2="920" y1="965.5" y2="965.5" class="net_81"/>
  <line x1="920" x2="920" y1="965.5" y2="1008" class="net_81"/>
  <circle cx="920" cy="965.5" r="2" style="fill:#000" class="net_81"/>
  <circle cx="920" cy="1008" r="2" style="fill:#000" class="net_81"/>
  <line x1="920" x2="948.7142857142857" y1="1008" y2="1008" class="net_81"/>
  <line x1="895.3333333333334" x2="920" y1="965.5" y2="965.5" class="net_81"/>
  <line x1="920" x2="920" y1="965.5" y2="1028" class="net_81"/>
  <circle cx="920" cy="1028" r="2" style="fill:#000" class="net_81"/>
  <line x1="920" x2="948.7142857142857" y1="1028" y2="1028" class="net_81"/>
  <line x1="895.3333333333334" x2="920" y1="965.5" y2="965.5" class="net_81"/>
  <line x1="920" x2="920" y1="965.5" y2="1048" class="net_81"/>
  <circle cx="920" cy="1048" r="2" style="fill:#000" class="net_81"/>
  <line x1="920" x2="948.7142857142857" y1="1048" y2="1048" class="net_81"/>
  <line x1="895.3333333333334" x2="920" y1="965.5" y2="965.5" class="net_81"/>
  <line x1="920" x2="920" y1="965.5" y2="1068" class="net_81"/>
  <circle cx="920" cy="1068" r="2" style="fill:#000" class="net_81"/>
  <line x1="920" x2="948.7142857142857" y1="1068" y2="1068" class="net_81"/>
  <line x1="895.3333333333334" x2="920" y1="965.5" y2="965.5" class="net_81"/>
  <line x1="920" x2="920" y1="965.5" y2="1088" class="net_81"/>
  <circle cx="920" cy="1088" r="2" style="fill:#000" class="net_81"/>
  <line x1="920" x2="948.7142857142857" y1="1088" y2="1088" class="net_81"/>
  <line x1="895.3333333333334" x2="920" y1="965.5" y2="965.5" class="net_81"/>
  <line x1="920" x2="920" y1="965.5" y2="1108" class="net_81"/>
  <circle cx="920" cy="1108" r="2" style="fill:#000" class="net_81"/>
  <line x1="920" x2="948.7142857142857" y1="1108" y2="1108" class="net_81"/>
  <line x1="895.3333333333334" x2="920" y1="965.5" y2="965.5" class="net_81"/>
  <line x1="920" x2="920" y1="965.5" y2="1147.5" class="net_81"/>
  <line x1="920" x2="949.2142857142857" y1="1147.5" y2="1147.5" class="net_81"/>
  <line x1="949.2142857142857" x2="949.2142857142857" y1="1147.5" y2="1128.5" class="net_81"/>
</svg>
