<svg xmlns="http://www.w3.org/2000/svg" xmlns:xlink="http://www.w3.org/1999/xlink" xmlns:s="https://github.com/nturley/netlistsvg" width="428" height="399.5">
  <style>svg {
    stroke:#000;
    fill:none;
  }
  text {
    fill:#000;
    stroke:none;
    font-size:10px;
    font-weight: bold;
    font-family: "Courier New", monospace;
  }
  .nodelabel {
    text-anchor: middle;
  }
  .inputPortLabel {
    text-anchor: end;
  }
  .splitjoinBody {
    fill:#000;
  }</style>
  <g s:type="add" transform="translate(157.33333333333334,346.5)" s:width="25" s:height="25" id="cell_$add$../Verilog/clock_div.v:39$5">
    <s:alias val="$add"/>
    <circle r="12.5" cx="12.5" cy="12.5" class="cell_$add$../Verilog/clock_div.v:39$5"/>
    <line x1="7.5" x2="17.5" y1="12.5" y2="12.5" class="cell_$add$../Verilog/clock_div.v:39$5"/>
    <line x1="12.5" x2="12.5" y1="7.5" y2="17.5" class="cell_$add$../Verilog/clock_div.v:39$5"/>
    <g s:x="3" s:y="5" s:pid="A"/>
    <g s:x="3" s:y="20" s:pid="B"/>
    <g s:x="25" s:y="12.5" s:pid="Y"/>
  </g>
  <g s:type="eq" transform="translate(92.33333333333333,286.5)" s:width="25" s:height="25" id="cell_$eq$../Verilog/clock_div.v:33$3">
    <s:alias val="$eq"/>
    <circle r="12.5" cx="12.5" cy="12.5" class="cell_$eq$../Verilog/clock_div.v:33$3"/>
    <line x1="7.5" x2="17.5" y1="10" y2="10" class="cell_$eq$../Verilog/clock_div.v:33$3"/>
    <line x1="7.5" x2="17.5" y1="15" y2="15" class="cell_$eq$../Verilog/clock_div.v:33$3"/>
    <g s:x="3" s:y="5" s:pid="A"/>
    <g s:x="3" s:y="20" s:pid="B"/>
    <g s:x="25" s:y="12.5" s:pid="Y"/>
  </g>
  <g s:type="not" transform="translate(89,43)" s:width="30" s:height="20" id="cell_$not$../Verilog/clock_div.v:35$4">
    <s:alias val="$_NOT_"/>
    <s:alias val="$not"/>
    <s:alias val="$logic_not"/>
    <path d="M0,0 L0,20 L20,10 Z" class="cell_$not$../Verilog/clock_div.v:35$4"/>
    <circle cx="23" cy="10" r="3" class="cell_$not$../Verilog/clock_div.v:35$4"/>
    <g s:x="0" s:y="10" s:pid="A"/>
    <g s:x="25" s:y="10" s:pid="Y"/>
  </g>
  <g s:type="dff" transform="translate(299,174)" s:width="30" s:height="40" id="cell_$procdff$16">
    <s:alias val="$dff"/>
    <s:alias val="$_DFF_"/>
    <s:alias val="$_DFF_P_"/>
    <rect width="30" height="40" x="0" y="0" class="cell_$procdff$16"/>
    <path d="M0,35 L5,30 L0,25" class="cell_$procdff$16"/>
    <g s:x="30" s:y="10" s:pid="Q"/>
    <g s:x="0" s:y="30" s:pid="CLK"/>
    <g s:x="0" s:y="30" s:pid="C"/>
    <g s:x="0" s:y="10" s:pid="D"/>
  </g>
  <g s:type="dff" transform="translate(364,336.5)" s:width="30" s:height="40" id="cell_$procdff$17">
    <s:alias val="$dff"/>
    <s:alias val="$_DFF_"/>
    <s:alias val="$_DFF_P_"/>
    <rect width="30" height="40" x="0" y="0" class="cell_$procdff$17"/>
    <path d="M0,35 L5,30 L0,25" class="cell_$procdff$17"/>
    <g s:x="30" s:y="10" s:pid="Q"/>
    <g s:x="0" s:y="30" s:pid="CLK"/>
    <g s:x="0" s:y="30" s:pid="C"/>
    <g s:x="0" s:y="10" s:pid="D"/>
  </g>
  <g s:type="mux" transform="translate(225.66666666666666,249)" s:width="20" s:height="40" id="cell_$ternary$../Verilog/clock_div.v:43$6">
    <s:alias val="$pmux"/>
    <s:alias val="$mux"/>
    <s:alias val="$_MUX_"/>
    <path d="M0,0 L20,10 L20,30 L0,40 Z" class="cell_$ternary$../Verilog/clock_div.v:43$6"/>
    <g s:x="0" s:y="10" s:pid="A"/>
    <g s:x="0" s:y="30" s:pid="B"/>
    <g s:x="10" s:y="35" s:pid="S"/>
    <g s:x="20" s:y="20" s:pid="Y"/>
  </g>
  <g s:type="mux" transform="translate(160.66666666666666,23)" s:width="20" s:height="40" id="cell_$ternary$../Verilog/clock_div.v:45$7">
    <s:alias val="$pmux"/>
    <s:alias val="$mux"/>
    <s:alias val="$_MUX_"/>
    <path d="M0,0 L20,10 L20,30 L0,40 Z" class="cell_$ternary$../Verilog/clock_div.v:45$7"/>
    <g s:x="0" s:y="10" s:pid="A"/>
    <g s:x="0" s:y="30" s:pid="B"/>
    <g s:x="10" s:y="35" s:pid="S"/>
    <g s:x="20" s:y="20" s:pid="Y"/>
  </g>
  <g s:type="mux" transform="translate(302.3333333333333,259)" s:width="20" s:height="40" id="cell_$ternary$../Verilog/clock_div.v:47$8">
    <s:alias val="$pmux"/>
    <s:alias val="$mux"/>
    <s:alias val="$_MUX_"/>
    <path d="M0,0 L20,10 L20,30 L0,40 Z" class="cell_$ternary$../Verilog/clock_div.v:47$8"/>
    <g s:x="0" s:y="10" s:pid="A"/>
    <g s:x="0" s:y="30" s:pid="B"/>
    <g s:x="10" s:y="35" s:pid="S"/>
    <g s:x="20" s:y="20" s:pid="Y"/>
  </g>
  <g s:type="mux" transform="translate(222.33333333333334,73)" s:width="20" s:height="40" id="cell_$ternary$../Verilog/clock_div.v:49$9">
    <s:alias val="$pmux"/>
    <s:alias val="$mux"/>
    <s:alias val="$_MUX_"/>
    <path d="M0,0 L20,10 L20,30 L0,40 Z" class="cell_$ternary$../Verilog/clock_div.v:49$9"/>
    <g s:x="0" s:y="10" s:pid="A"/>
    <g s:x="0" s:y="30" s:pid="B"/>
    <g s:x="10" s:y="35" s:pid="S"/>
    <g s:x="20" s:y="20" s:pid="Y"/>
  </g>
  <g s:type="inputExt" transform="translate(219,194)" s:width="30" s:height="20" id="cell_clk">
    <text x="15" y="-4" class="nodelabel cell_clk" s:attribute="ref">clk</text>
    <s:alias val="$_inputExt_"/>
    <path d="M0,0 L0,20 L15,20 L30,10 L15,0 Z" class="cell_clk"/>
    <g s:x="28" s:y="10" s:pid="Y"/>
  </g>
  <g s:type="inputExt" transform="translate(154,163)" s:width="30" s:height="20" id="cell_rst">
    <text x="15" y="-4" class="nodelabel cell_rst" s:attribute="ref">rst</text>
    <s:alias val="$_inputExt_"/>
    <path d="M0,0 L0,20 L15,20 L30,10 L15,0 Z" class="cell_rst"/>
    <g s:x="28" s:y="10" s:pid="Y"/>
  </g>
  <g s:type="outputExt" transform="translate(364,174)" s:width="30" s:height="20" id="cell_clk_out">
    <text x="15" y="-4" class="nodelabel cell_clk_out" s:attribute="ref">clk_out</text>
    <s:alias val="$_outputExt_"/>
    <path d="M30,0 L30,20 L15,20 L0,10 L15,0 Z" class="cell_clk_out"/>
    <g s:x="0" s:y="10" s:pid="A"/>
  </g>
  <g s:type="constant" transform="translate(89,356.5)" s:width="30" s:height="20" id="cell_1">
    <text x="15" y="-4" class="nodelabel cell_1" s:attribute="ref">1</text>
    <s:alias val="$_constant_"/>
    <rect width="30" height="20" class="cell_1"/>
    <g s:x="30" s:y="10" s:pid="Y"/>
  </g>
  <g s:type="constant" transform="translate(12,296.5)" s:width="30" s:height="20" id="cell_10000010000100111">
    <text x="15" y="-4" class="nodelabel cell_10000010000100111" s:attribute="ref">0x10427</text>
    <s:alias val="$_constant_"/>
    <rect width="30" height="20" class="cell_10000010000100111"/>
    <g s:x="30" s:y="10" s:pid="Y"/>
  </g>
  <g s:type="constant" transform="translate(219,143)" s:width="30" s:height="20" id="cell_00000000000000000">
    <text x="15" y="-4" class="nodelabel cell_00000000000000000" s:attribute="ref">0x0</text>
    <s:alias val="$_constant_"/>
    <rect width="30" height="20" class="cell_00000000000000000"/>
    <g s:x="30" s:y="10" s:pid="Y"/>
  </g>
  <g s:type="constant" transform="translate(154,93)" s:width="30" s:height="20" id="cell_0">
    <text x="15" y="-4" class="nodelabel cell_0" s:attribute="ref">0</text>
    <s:alias val="$_constant_"/>
    <rect width="30" height="20" class="cell_0"/>
    <g s:x="30" s:y="10" s:pid="Y"/>
  </g>
  <line x1="394" x2="416" y1="346.5" y2="346.5" class="net_5,6,7,8,9,10,11,12,13,14,15,16,17,18,19,20,21"/>
  <line x1="416" x2="416" y1="346.5" y2="386.5" class="net_5,6,7,8,9,10,11,12,13,14,15,16,17,18,19,20,21"/>
  <line x1="416" x2="204" y1="386.5" y2="386.5" class="net_5,6,7,8,9,10,11,12,13,14,15,16,17,18,19,20,21"/>
  <line x1="204" x2="204" y1="386.5" y2="336.5" class="net_5,6,7,8,9,10,11,12,13,14,15,16,17,18,19,20,21"/>
  <line x1="204" x2="129" y1="336.5" y2="336.5" class="net_5,6,7,8,9,10,11,12,13,14,15,16,17,18,19,20,21"/>
  <line x1="129" x2="129" y1="336.5" y2="351.5" class="net_5,6,7,8,9,10,11,12,13,14,15,16,17,18,19,20,21"/>
  <circle cx="204" cy="336.5" r="2" style="fill:#000" class="net_5,6,7,8,9,10,11,12,13,14,15,16,17,18,19,20,21"/>
  <circle cx="204" cy="386.5" r="2" style="fill:#000" class="net_5,6,7,8,9,10,11,12,13,14,15,16,17,18,19,20,21"/>
  <line x1="129" x2="160.33333333333334" y1="351.5" y2="351.5" class="net_5,6,7,8,9,10,11,12,13,14,15,16,17,18,19,20,21"/>
  <line x1="394" x2="416" y1="346.5" y2="346.5" class="net_5,6,7,8,9,10,11,12,13,14,15,16,17,18,19,20,21"/>
  <line x1="416" x2="416" y1="346.5" y2="386.5" class="net_5,6,7,8,9,10,11,12,13,14,15,16,17,18,19,20,21"/>
  <line x1="416" x2="64" y1="386.5" y2="386.5" class="net_5,6,7,8,9,10,11,12,13,14,15,16,17,18,19,20,21"/>
  <line x1="64" x2="64" y1="386.5" y2="291.5" class="net_5,6,7,8,9,10,11,12,13,14,15,16,17,18,19,20,21"/>
  <line x1="64" x2="95.33333333333333" y1="291.5" y2="291.5" class="net_5,6,7,8,9,10,11,12,13,14,15,16,17,18,19,20,21"/>
  <line x1="394" x2="416" y1="346.5" y2="346.5" class="net_5,6,7,8,9,10,11,12,13,14,15,16,17,18,19,20,21"/>
  <line x1="416" x2="416" y1="346.5" y2="386.5" class="net_5,6,7,8,9,10,11,12,13,14,15,16,17,18,19,20,21"/>
  <line x1="416" x2="204" y1="386.5" y2="386.5" class="net_5,6,7,8,9,10,11,12,13,14,15,16,17,18,19,20,21"/>
  <line x1="204" x2="204" y1="386.5" y2="279" class="net_5,6,7,8,9,10,11,12,13,14,15,16,17,18,19,20,21"/>
  <line x1="204" x2="225.66666666666666" y1="279" y2="279" class="net_5,6,7,8,9,10,11,12,13,14,15,16,17,18,19,20,21"/>
  <line x1="119" x2="160.33333333333334" y1="366.5" y2="366.5" class="net_77"/>
  <line x1="42" x2="95.33333333333333" y1="306.5" y2="306.5" class="net_78,79,80,81,82,83,84,85,86,87,88,89,90,91,92,93,94"/>
  <line x1="329" x2="339" y1="184" y2="184" class="net_4"/>
  <line x1="339" x2="339" y1="184" y2="12" class="net_4"/>
  <line x1="339" x2="64" y1="12" y2="12" class="net_4"/>
  <line x1="64" x2="64" y1="12" y2="53" class="net_4"/>
  <circle cx="339" cy="184" r="2" style="fill:#000" class="net_4"/>
  <line x1="64" x2="89" y1="53" y2="53" class="net_4"/>
  <line x1="329" x2="339" y1="184" y2="184" class="net_4"/>
  <line x1="339" x2="339" y1="184" y2="12" class="net_4"/>
  <line x1="339" x2="129" y1="12" y2="12" class="net_4"/>
  <line x1="129" x2="129" y1="12" y2="33" class="net_4"/>
  <circle cx="129" cy="12" r="2" style="fill:#000" class="net_4"/>
  <line x1="129" x2="160.66666666666666" y1="33" y2="33" class="net_4"/>
  <line x1="329" x2="364" y1="184" y2="184" class="net_4"/>
  <line x1="247" x2="299" y1="204" y2="204" class="net_2"/>
  <line x1="247" x2="259" y1="204" y2="204" class="net_2"/>
  <line x1="259" x2="259" y1="204" y2="366.5" class="net_2"/>
  <circle cx="259" cy="204" r="2" style="fill:#000" class="net_2"/>
  <line x1="259" x2="364" y1="366.5" y2="366.5" class="net_2"/>
  <line x1="242.33333333333334" x2="289" y1="93" y2="93" class="net_41"/>
  <line x1="289" x2="289" y1="93" y2="184" class="net_41"/>
  <line x1="289" x2="299" y1="184" y2="184" class="net_41"/>
  <line x1="322.3333333333333" x2="339" y1="279" y2="279" class="net_42,43,44,45,46,47,48,49,50,51,52,53,54,55,56,57,58"/>
  <line x1="339" x2="339" y1="279" y2="346.5" class="net_42,43,44,45,46,47,48,49,50,51,52,53,54,55,56,57,58"/>
  <line x1="339" x2="364" y1="346.5" y2="346.5" class="net_42,43,44,45,46,47,48,49,50,51,52,53,54,55,56,57,58"/>
  <line x1="182.33333333333334" x2="194" y1="359" y2="359" class="net_22,23,24,25,26,27,28,29,30,31,32,33,34,35,36,37,38"/>
  <line x1="194" x2="194" y1="359" y2="259" class="net_22,23,24,25,26,27,28,29,30,31,32,33,34,35,36,37,38"/>
  <line x1="194" x2="225.66666666666666" y1="259" y2="259" class="net_22,23,24,25,26,27,28,29,30,31,32,33,34,35,36,37,38"/>
  <line x1="117.33333333333333" x2="235.66666666666666" y1="299" y2="299" class="net_39"/>
  <line x1="235.66666666666666" x2="235.66666666666666" y1="299" y2="284" class="net_39"/>
  <line x1="117.33333333333333" x2="129" y1="299" y2="299" class="net_39"/>
  <line x1="129" x2="129" y1="299" y2="73" class="net_39"/>
  <line x1="129" x2="170.66666666666666" y1="73" y2="73" class="net_39"/>
  <circle cx="129" cy="299" r="2" style="fill:#000" class="net_39"/>
  <line x1="170.66666666666666" x2="170.66666666666666" y1="73" y2="58" class="net_39"/>
  <line x1="114" x2="160.66666666666666" y1="53" y2="53" class="net_40"/>
  <line x1="245.66666666666666" x2="302.3333333333333" y1="269" y2="269" class="net_59,60,61,62,63,64,65,66,67,68,69,70,71,72,73,74,75"/>
  <line x1="249" x2="279" y1="153" y2="153" class="net_95,96,97,98,99,100,101,102,103,104,105,106,107,108,109,110,111"/>
  <line x1="279" x2="279" y1="153" y2="289" class="net_95,96,97,98,99,100,101,102,103,104,105,106,107,108,109,110,111"/>
  <line x1="279" x2="302.3333333333333" y1="289" y2="289" class="net_95,96,97,98,99,100,101,102,103,104,105,106,107,108,109,110,111"/>
  <line x1="182" x2="269" y1="173" y2="173" class="net_3"/>
  <line x1="269" x2="269" y1="173" y2="356.5" class="net_3"/>
  <line x1="269" x2="312.3333333333333" y1="356.5" y2="356.5" class="net_3"/>
  <line x1="312.3333333333333" x2="312.3333333333333" y1="356.5" y2="294" class="net_3"/>
  <line x1="182" x2="194" y1="173" y2="173" class="net_3"/>
  <line x1="194" x2="194" y1="173" y2="123" class="net_3"/>
  <line x1="194" x2="232.33333333333334" y1="123" y2="123" class="net_3"/>
  <circle cx="194" cy="173" r="2" style="fill:#000" class="net_3"/>
  <line x1="232.33333333333334" x2="232.33333333333334" y1="123" y2="108" class="net_3"/>
  <line x1="180.66666666666666" x2="194" y1="43" y2="43" class="net_76"/>
  <line x1="194" x2="194" y1="43" y2="83" class="net_76"/>
  <line x1="194" x2="222.33333333333334" y1="83" y2="83" class="net_76"/>
  <line x1="184" x2="222.33333333333334" y1="103" y2="103" class="net_112"/>
</svg>
