<svg xmlns="http://www.w3.org/2000/svg" xmlns:xlink="http://www.w3.org/1999/xlink" xmlns:s="https://github.com/nturley/netlistsvg" width="682" height="1212">
  <style>svg {
    stroke:#000;
    fill:none;
  }
  text {
    fill:#000;
    stroke:none;
    font-size:10px;
    font-weight: bold;
    font-family: "Courier New", monospace;
  }
  .nodelabel {
    text-anchor: middle;
  }
  .inputPortLabel {
    text-anchor: end;
  }
  .splitjoinBody {
    fill:#000;
  }</style>
  <g s:type="add" transform="translate(554.6666666666666,918)" s:width="25" s:height="25" id="cell_$add$../Verilog/morse_display.v:57$3">
    <s:alias val="$add"/>
    <circle r="12.5" cx="12.5" cy="12.5" class="cell_$add$../Verilog/morse_display.v:57$3"/>
    <line x1="7.5" x2="17.5" y1="12.5" y2="12.5" class="cell_$add$../Verilog/morse_display.v:57$3"/>
    <line x1="12.5" x2="12.5" y1="7.5" y2="17.5" class="cell_$add$../Verilog/morse_display.v:57$3"/>
    <g s:x="3" s:y="5" s:pid="A"/>
    <g s:x="3" s:y="20" s:pid="B"/>
    <g s:x="25" s:y="12.5" s:pid="Y"/>
  </g>
  <g s:type="eq" transform="translate(231.66666666666666,804)" s:width="25" s:height="25" id="cell_$eq$../Verilog/morse_display.v:53$2">
    <s:alias val="$eq"/>
    <circle r="12.5" cx="12.5" cy="12.5" class="cell_$eq$../Verilog/morse_display.v:53$2"/>
    <line x1="7.5" x2="17.5" y1="10" y2="10" class="cell_$eq$../Verilog/morse_display.v:53$2"/>
    <line x1="7.5" x2="17.5" y1="15" y2="15" class="cell_$eq$../Verilog/morse_display.v:53$2"/>
    <g s:x="3" s:y="5" s:pid="A"/>
    <g s:x="3" s:y="20" s:pid="B"/>
    <g s:x="25" s:y="12.5" s:pid="Y"/>
  </g>
  <g s:type="not" transform="translate(231,206.5)" s:width="30" s:height="20" id="cell_$eq$../Verilog/morse_display.v:63$5">
    <s:alias val="$_NOT_"/>
    <s:alias val="$not"/>
    <s:alias val="$logic_not"/>
    <path d="M0,0 L0,20 L20,10 Z" class="cell_$eq$../Verilog/morse_display.v:63$5"/>
    <circle cx="23" cy="10" r="3" class="cell_$eq$../Verilog/morse_display.v:63$5"/>
    <g s:x="0" s:y="10" s:pid="A"/>
    <g s:x="25" s:y="10" s:pid="Y"/>
  </g>
  <g s:type="eq" transform="translate(231.66666666666666,261.5)" s:width="25" s:height="25" id="cell_$eq$../Verilog/morse_display.v:65$6">
    <s:alias val="$eq"/>
    <circle r="12.5" cx="12.5" cy="12.5" class="cell_$eq$../Verilog/morse_display.v:65$6"/>
    <line x1="7.5" x2="17.5" y1="10" y2="10" class="cell_$eq$../Verilog/morse_display.v:65$6"/>
    <line x1="7.5" x2="17.5" y1="15" y2="15" class="cell_$eq$../Verilog/morse_display.v:65$6"/>
    <g s:x="3" s:y="5" s:pid="A"/>
    <g s:x="3" s:y="20" s:pid="B"/>
    <g s:x="25" s:y="12.5" s:pid="Y"/>
  </g>
  <g s:type="eq" transform="translate(231.66666666666666,321.5)" s:width="25" s:height="25" id="cell_$eq$../Verilog/morse_display.v:67$7">
    <s:alias val="$eq"/>
    <circle r="12.5" cx="12.5" cy="12.5" class="cell_$eq$../Verilog/morse_display.v:67$7"/>
    <line x1="7.5" x2="17.5" y1="10" y2="10" class="cell_$eq$../Verilog/morse_display.v:67$7"/>
    <line x1="7.5" x2="17.5" y1="15" y2="15" class="cell_$eq$../Verilog/morse_display.v:67$7"/>
    <g s:x="3" s:y="5" s:pid="A"/>
    <g s:x="3" s:y="20" s:pid="B"/>
    <g s:x="25" s:y="12.5" s:pid="Y"/>
  </g>
  <g s:type="eq" transform="translate(231.66666666666666,488.5)" s:width="25" s:height="25" id="cell_$eq$../Verilog/morse_display.v:69$8">
    <s:alias val="$eq"/>
    <circle r="12.5" cx="12.5" cy="12.5" class="cell_$eq$../Verilog/morse_display.v:69$8"/>
    <line x1="7.5" x2="17.5" y1="10" y2="10" class="cell_$eq$../Verilog/morse_display.v:69$8"/>
    <line x1="7.5" x2="17.5" y1="15" y2="15" class="cell_$eq$../Verilog/morse_display.v:69$8"/>
    <g s:x="3" s:y="5" s:pid="A"/>
    <g s:x="3" s:y="20" s:pid="B"/>
    <g s:x="25" s:y="12.5" s:pid="Y"/>
  </g>
  <g s:type="generic" transform="translate(102,1087)" s:width="30" s:height="40" id="cell_$procdff$34">
    <text x="15" y="-4" class="nodelabel cell_$procdff$34" s:attribute="ref">$adff</text>
    <rect width="30" height="60" s:generic="body" class="cell_$procdff$34"/>
    <g transform="translate(0,10)" s:x="0" s:y="10" s:pid="in0" id="port_$procdff$34~ARST">
      <text x="-3" y="-4" class="inputPortLabel cell_$procdff$34">ARST</text>
    </g>
    <g transform="translate(0,30)" s:x="0" s:y="10" s:pid="in0" id="port_$procdff$34~CLK">
      <text x="-3" y="-4" class="inputPortLabel cell_$procdff$34">CLK</text>
    </g>
    <g transform="translate(0,50)" s:x="0" s:y="10" s:pid="in0" id="port_$procdff$34~D">
      <text x="-3" y="-4" class="inputPortLabel cell_$procdff$34">D</text>
    </g>
    <g transform="translate(30,10)" s:x="30" s:y="10" s:pid="out0" id="port_$procdff$34~Q">
      <text x="5" y="-4" style="fill:#000; stroke:none" class="cell_$procdff$34">Q</text>
    </g>
  </g>
  <g s:type="mux" transform="translate(475.3333333333333,949)" s:width="20" s:height="40" id="cell_$procmux$17">
    <s:alias val="$pmux"/>
    <s:alias val="$mux"/>
    <s:alias val="$_MUX_"/>
    <path d="M0,0 L20,10 L20,30 L0,40 Z" class="cell_$procmux$17"/>
    <g s:x="0" s:y="10" s:pid="A"/>
    <g s:x="0" s:y="30" s:pid="B"/>
    <g s:x="10" s:y="35" s:pid="S"/>
    <g s:x="20" s:y="20" s:pid="Y"/>
  </g>
  <g s:type="eq" transform="translate(315.6666666666667,679)" s:width="25" s:height="25" id="cell_$procmux$18_CMP0">
    <s:alias val="$eq"/>
    <circle r="12.5" cx="12.5" cy="12.5" class="cell_$procmux$18_CMP0"/>
    <line x1="7.5" x2="17.5" y1="10" y2="10" class="cell_$procmux$18_CMP0"/>
    <line x1="7.5" x2="17.5" y1="15" y2="15" class="cell_$procmux$18_CMP0"/>
    <g s:x="3" s:y="5" s:pid="A"/>
    <g s:x="3" s:y="20" s:pid="B"/>
    <g s:x="25" s:y="12.5" s:pid="Y"/>
  </g>
  <g s:type="eq" transform="translate(315.6666666666667,739)" s:width="25" s:height="25" id="cell_$procmux$19_CMP0">
    <s:alias val="$eq"/>
    <circle r="12.5" cx="12.5" cy="12.5" class="cell_$procmux$19_CMP0"/>
    <line x1="7.5" x2="17.5" y1="10" y2="10" class="cell_$procmux$19_CMP0"/>
    <line x1="7.5" x2="17.5" y1="15" y2="15" class="cell_$procmux$19_CMP0"/>
    <g s:x="3" s:y="5" s:pid="A"/>
    <g s:x="3" s:y="20" s:pid="B"/>
    <g s:x="25" s:y="12.5" s:pid="Y"/>
  </g>
  <g s:type="eq" transform="translate(315.6666666666667,806.5)" s:width="25" s:height="25" id="cell_$procmux$20_CMP0">
    <s:alias val="$eq"/>
    <circle r="12.5" cx="12.5" cy="12.5" class="cell_$procmux$20_CMP0"/>
    <line x1="7.5" x2="17.5" y1="10" y2="10" class="cell_$procmux$20_CMP0"/>
    <line x1="7.5" x2="17.5" y1="15" y2="15" class="cell_$procmux$20_CMP0"/>
    <g s:x="3" s:y="5" s:pid="A"/>
    <g s:x="3" s:y="20" s:pid="B"/>
    <g s:x="25" s:y="12.5" s:pid="Y"/>
  </g>
  <g s:type="not" transform="translate(314,866.5)" s:width="30" s:height="20" id="cell_$procmux$21_CMP0">
    <s:alias val="$_NOT_"/>
    <s:alias val="$not"/>
    <s:alias val="$logic_not"/>
    <path d="M0,0 L0,20 L20,10 Z" class="cell_$procmux$21_CMP0"/>
    <circle cx="23" cy="10" r="3" class="cell_$procmux$21_CMP0"/>
    <g s:x="0" s:y="10" s:pid="A"/>
    <g s:x="25" s:y="10" s:pid="Y"/>
  </g>
  <g s:type="mux" transform="translate(475.3333333333333,519)" s:width="20" s:height="40" id="cell_$procmux$22">
    <s:alias val="$pmux"/>
    <s:alias val="$mux"/>
    <s:alias val="$_MUX_"/>
    <path d="M0,0 L20,10 L20,30 L0,40 Z" class="cell_$procmux$22"/>
    <g s:x="0" s:y="10" s:pid="A"/>
    <g s:x="0" s:y="30" s:pid="B"/>
    <g s:x="10" s:y="35" s:pid="S"/>
    <g s:x="20" s:y="20" s:pid="Y"/>
  </g>
  <g s:type="mux" transform="translate(556.3333333333334,67)" s:width="20" s:height="40" id="cell_$procmux$28">
    <s:alias val="$pmux"/>
    <s:alias val="$mux"/>
    <s:alias val="$_MUX_"/>
    <path d="M0,0 L20,10 L20,30 L0,40 Z" class="cell_$procmux$28"/>
    <g s:x="0" s:y="10" s:pid="A"/>
    <g s:x="0" s:y="30" s:pid="B"/>
    <g s:x="10" s:y="35" s:pid="S"/>
    <g s:x="20" s:y="20" s:pid="Y"/>
  </g>
  <g s:type="eq" transform="translate(404,104.5)" s:width="25" s:height="25" id="cell_$procmux$29_CMP0">
    <s:alias val="$eq"/>
    <circle r="12.5" cx="12.5" cy="12.5" class="cell_$procmux$29_CMP0"/>
    <line x1="7.5" x2="17.5" y1="10" y2="10" class="cell_$procmux$29_CMP0"/>
    <line x1="7.5" x2="17.5" y1="15" y2="15" class="cell_$procmux$29_CMP0"/>
    <g s:x="3" s:y="5" s:pid="A"/>
    <g s:x="3" s:y="20" s:pid="B"/>
    <g s:x="25" s:y="12.5" s:pid="Y"/>
  </g>
  <g s:type="eq" transform="translate(404,164.5)" s:width="25" s:height="25" id="cell_$procmux$30_CMP0">
    <s:alias val="$eq"/>
    <circle r="12.5" cx="12.5" cy="12.5" class="cell_$procmux$30_CMP0"/>
    <line x1="7.5" x2="17.5" y1="10" y2="10" class="cell_$procmux$30_CMP0"/>
    <line x1="7.5" x2="17.5" y1="15" y2="15" class="cell_$procmux$30_CMP0"/>
    <g s:x="3" s:y="5" s:pid="A"/>
    <g s:x="3" s:y="20" s:pid="B"/>
    <g s:x="25" s:y="12.5" s:pid="Y"/>
  </g>
  <g s:type="eq" transform="translate(404,299)" s:width="25" s:height="25" id="cell_$procmux$31_CMP0">
    <s:alias val="$eq"/>
    <circle r="12.5" cx="12.5" cy="12.5" class="cell_$procmux$31_CMP0"/>
    <line x1="7.5" x2="17.5" y1="10" y2="10" class="cell_$procmux$31_CMP0"/>
    <line x1="7.5" x2="17.5" y1="15" y2="15" class="cell_$procmux$31_CMP0"/>
    <g s:x="3" s:y="5" s:pid="A"/>
    <g s:x="3" s:y="20" s:pid="B"/>
    <g s:x="25" s:y="12.5" s:pid="Y"/>
  </g>
  <g s:type="eq" transform="translate(404,403.5)" s:width="25" s:height="25" id="cell_$procmux$32_CMP0">
    <s:alias val="$eq"/>
    <circle r="12.5" cx="12.5" cy="12.5" class="cell_$procmux$32_CMP0"/>
    <line x1="7.5" x2="17.5" y1="10" y2="10" class="cell_$procmux$32_CMP0"/>
    <line x1="7.5" x2="17.5" y1="15" y2="15" class="cell_$procmux$32_CMP0"/>
    <g s:x="3" s:y="5" s:pid="A"/>
    <g s:x="3" s:y="20" s:pid="B"/>
    <g s:x="25" s:y="12.5" s:pid="Y"/>
  </g>
  <g s:type="eq" transform="translate(404,468.5)" s:width="25" s:height="25" id="cell_$procmux$33_CMP0">
    <s:alias val="$eq"/>
    <circle r="12.5" cx="12.5" cy="12.5" class="cell_$procmux$33_CMP0"/>
    <line x1="7.5" x2="17.5" y1="10" y2="10" class="cell_$procmux$33_CMP0"/>
    <line x1="7.5" x2="17.5" y1="15" y2="15" class="cell_$procmux$33_CMP0"/>
    <g s:x="3" s:y="5" s:pid="A"/>
    <g s:x="3" s:y="20" s:pid="B"/>
    <g s:x="25" s:y="12.5" s:pid="Y"/>
  </g>
  <g s:type="mux" transform="translate(556.3333333333334,529)" s:width="20" s:height="40" id="cell_$ternary$../Verilog/morse_display.v:111$13">
    <s:alias val="$pmux"/>
    <s:alias val="$mux"/>
    <s:alias val="$_MUX_"/>
    <path d="M0,0 L20,10 L20,30 L0,40 Z" class="cell_$ternary$../Verilog/morse_display.v:111$13"/>
    <g s:x="0" s:y="10" s:pid="A"/>
    <g s:x="0" s:y="30" s:pid="B"/>
    <g s:x="10" s:y="35" s:pid="S"/>
    <g s:x="20" s:y="20" s:pid="Y"/>
  </g>
  <g s:type="mux" transform="translate(556.3333333333334,1099)" s:width="20" s:height="40" id="cell_$ternary$../Verilog/morse_display.v:132$15">
    <s:alias val="$pmux"/>
    <s:alias val="$mux"/>
    <s:alias val="$_MUX_"/>
    <path d="M0,0 L20,10 L20,30 L0,40 Z" class="cell_$ternary$../Verilog/morse_display.v:132$15"/>
    <g s:x="0" s:y="10" s:pid="A"/>
    <g s:x="0" s:y="30" s:pid="B"/>
    <g s:x="10" s:y="35" s:pid="S"/>
    <g s:x="20" s:y="20" s:pid="Y"/>
  </g>
  <g s:type="mux" transform="translate(618,1038)" s:width="20" s:height="40" id="cell_$ternary$../Verilog/morse_display.v:61$4">
    <s:alias val="$pmux"/>
    <s:alias val="$mux"/>
    <s:alias val="$_MUX_"/>
    <path d="M0,0 L20,10 L20,30 L0,40 Z" class="cell_$ternary$../Verilog/morse_display.v:61$4"/>
    <g s:x="0" s:y="10" s:pid="A"/>
    <g s:x="0" s:y="30" s:pid="B"/>
    <g s:x="10" s:y="35" s:pid="S"/>
    <g s:x="20" s:y="20" s:pid="Y"/>
  </g>
  <g s:type="inputExt" transform="translate(12,1107.5)" s:width="30" s:height="20" id="cell_clk">
    <text x="15" y="-4" class="nodelabel cell_clk" s:attribute="ref">clk</text>
    <s:alias val="$_inputExt_"/>
    <path d="M0,0 L0,20 L15,20 L30,10 L15,0 Z" class="cell_clk"/>
    <g s:x="28" s:y="10" s:pid="Y"/>
  </g>
  <g s:type="inputExt" transform="translate(12,1042.5)" s:width="30" s:height="20" id="cell_reset">
    <text x="15" y="-4" class="nodelabel cell_reset" s:attribute="ref">reset</text>
    <s:alias val="$_inputExt_"/>
    <path d="M0,0 L0,20 L15,20 L30,10 L15,0 Z" class="cell_reset"/>
    <g s:x="28" s:y="10" s:pid="Y"/>
  </g>
  <g s:type="inputExt" transform="translate(228,558.5)" s:width="30" s:height="20" id="cell_dots">
    <text x="15" y="-4" class="nodelabel cell_dots" s:attribute="ref">dots</text>
    <s:alias val="$_inputExt_"/>
    <path d="M0,0 L0,20 L15,20 L30,10 L15,0 Z" class="cell_dots"/>
    <g s:x="28" s:y="10" s:pid="Y"/>
  </g>
  <g s:type="inputExt" transform="translate(228,988.5)" s:width="30" s:height="20" id="cell_dashes">
    <text x="15" y="-4" class="nodelabel cell_dashes" s:attribute="ref">dashes</text>
    <s:alias val="$_inputExt_"/>
    <path d="M0,0 L0,20 L15,20 L30,10 L15,0 Z" class="cell_dashes"/>
    <g s:x="28" s:y="10" s:pid="Y"/>
  </g>
  <g s:type="outputExt" transform="translate(618,539)" s:width="30" s:height="20" id="cell_dot">
    <text x="15" y="-4" class="nodelabel cell_dot" s:attribute="ref">dot</text>
    <s:alias val="$_outputExt_"/>
    <path d="M30,0 L30,20 L15,20 L0,10 L15,0 Z" class="cell_dot"/>
    <g s:x="0" s:y="10" s:pid="A"/>
  </g>
  <g s:type="outputExt" transform="translate(618,1180)" s:width="30" s:height="20" id="cell_dash">
    <text x="15" y="-4" class="nodelabel cell_dash" s:attribute="ref">dash</text>
    <s:alias val="$_outputExt_"/>
    <path d="M30,0 L30,20 L15,20 L0,10 L15,0 Z" class="cell_dash"/>
    <g s:x="0" s:y="10" s:pid="A"/>
  </g>
  <g s:type="outputExt" transform="translate(618,77)" s:width="30" s:height="20" id="cell_cathode">
    <text x="15" y="-4" class="nodelabel cell_cathode" s:attribute="ref">cathode</text>
    <s:alias val="$_outputExt_"/>
    <path d="M30,0 L30,20 L15,20 L0,10 L15,0 Z" class="cell_cathode"/>
    <g s:x="0" s:y="10" s:pid="A"/>
  </g>
  <g s:type="constant" transform="translate(102,928)" s:width="30" s:height="20" id="cell_1">
    <text x="15" y="-4" class="nodelabel cell_1" s:attribute="ref">1</text>
    <s:alias val="$_constant_"/>
    <rect width="30" height="20" class="cell_1"/>
    <g s:x="30" s:y="10" s:pid="Y"/>
  </g>
  <g s:type="constant" transform="translate(102,814)" s:width="30" s:height="20" id="cell_100">
    <text x="15" y="-4" class="nodelabel cell_100" s:attribute="ref">100</text>
    <s:alias val="$_constant_"/>
    <rect width="30" height="20" class="cell_100"/>
    <g s:x="30" s:y="10" s:pid="Y"/>
  </g>
  <g s:type="constant" transform="translate(102,749)" s:width="30" s:height="20" id="cell_10">
    <text x="15" y="-4" class="nodelabel cell_10" s:attribute="ref">10</text>
    <s:alias val="$_constant_"/>
    <rect width="30" height="20" class="cell_10"/>
    <g s:x="30" s:y="10" s:pid="Y"/>
  </g>
  <g s:type="constant" transform="translate(102,1022)" s:width="30" s:height="20" id="cell_11">
    <text x="15" y="-4" class="nodelabel cell_11" s:attribute="ref">11</text>
    <s:alias val="$_constant_"/>
    <rect width="30" height="20" class="cell_11"/>
    <g s:x="30" s:y="10" s:pid="Y"/>
  </g>
  <g s:type="constant" transform="translate(464,22)" s:width="30" s:height="20" id="cell_11111">
    <text x="15" y="-4" class="nodelabel cell_11111" s:attribute="ref">0x1f</text>
    <s:alias val="$_constant_"/>
    <rect width="30" height="20" class="cell_11111"/>
    <g s:x="30" s:y="10" s:pid="Y"/>
  </g>
  <g s:type="constant" transform="translate(464,87)" s:width="30" s:height="20" id="cell_1111011101110111011101111">
    <text x="15" y="-4" class="nodelabel cell_1111011101110111011101111" s:attribute="ref">0x1eeeeef</text>
    <s:alias val="$_constant_"/>
    <rect width="30" height="20" class="cell_1111011101110111011101111"/>
    <g s:x="30" s:y="10" s:pid="Y"/>
  </g>
  <g s:type="constant" transform="translate(314,413.5)" s:width="30" s:height="20" id="cell_1000">
    <text x="15" y="-4" class="nodelabel cell_1000" s:attribute="ref">0x8</text>
    <s:alias val="$_constant_"/>
    <rect width="30" height="20" class="cell_1000"/>
    <g s:x="30" s:y="10" s:pid="Y"/>
  </g>
  <g s:type="constant" transform="translate(314,478.5)" s:width="30" s:height="20" id="cell_10000">
    <text x="15" y="-4" class="nodelabel cell_10000" s:attribute="ref">0x10</text>
    <s:alias val="$_constant_"/>
    <rect width="30" height="20" class="cell_10000"/>
    <g s:x="30" s:y="10" s:pid="Y"/>
  </g>
  <g s:type="constant" transform="translate(553,1058)" s:width="30" s:height="20" id="cell_000">
    <text x="15" y="-4" class="nodelabel cell_000" s:attribute="ref">000</text>
    <s:alias val="$_constant_"/>
    <rect width="30" height="20" class="cell_000"/>
    <g s:x="30" s:y="10" s:pid="Y"/>
  </g>
  <g s:type="join" transform="translate(412.75,958.5)" s:width="4" s:height="40" id="cell_$join$,12,11,10,9,">
    <rect width="5" height="80" class="splitjoinBody" s:generic="body"/>
    <s:alias val="$_join_"/>
    <g s:x="5" s:y="20" s:pid="out"/>
    <g transform="translate(0,10)" s:x="0" s:y="10" s:pid="in0">
      <text x="-3" y="-4" class="inputPortLabel">0</text>
    </g>
    <g transform="translate(0,30)" s:x="0" s:y="10" s:pid="in0">
      <text x="-3" y="-4" class="inputPortLabel">1</text>
    </g>
    <g transform="translate(0,50)" s:x="0" s:y="10" s:pid="in0">
      <text x="-3" y="-4" class="inputPortLabel">2</text>
    </g>
    <g transform="translate(0,70)" s:x="0" s:y="10" s:pid="in0">
      <text x="-3" y="-4" class="inputPortLabel">3</text>
    </g>
  </g>
  <g s:type="join" transform="translate(412.75,721)" s:width="4" s:height="40" id="cell_$join$,35,36,37,38,">
    <rect width="5" height="80" class="splitjoinBody" s:generic="body"/>
    <s:alias val="$_join_"/>
    <g s:x="5" s:y="20" s:pid="out"/>
    <g transform="translate(0,10)" s:x="0" s:y="10" s:pid="in0">
      <text x="-3" y="-4" class="inputPortLabel">0</text>
    </g>
    <g transform="translate(0,30)" s:x="0" s:y="10" s:pid="in0">
      <text x="-3" y="-4" class="inputPortLabel">1</text>
    </g>
    <g transform="translate(0,50)" s:x="0" s:y="10" s:pid="in0">
      <text x="-3" y="-4" class="inputPortLabel">2</text>
    </g>
    <g transform="translate(0,70)" s:x="0" s:y="10" s:pid="in0">
      <text x="-3" y="-4" class="inputPortLabel">3</text>
    </g>
  </g>
  <g s:type="join" transform="translate(412.75,528.5)" s:width="4" s:height="40" id="cell_$join$,7,6,5,4,">
    <rect width="5" height="80" class="splitjoinBody" s:generic="body"/>
    <s:alias val="$_join_"/>
    <g s:x="5" s:y="20" s:pid="out"/>
    <g transform="translate(0,10)" s:x="0" s:y="10" s:pid="in0">
      <text x="-3" y="-4" class="inputPortLabel">0</text>
    </g>
    <g transform="translate(0,30)" s:x="0" s:y="10" s:pid="in0">
      <text x="-3" y="-4" class="inputPortLabel">1</text>
    </g>
    <g transform="translate(0,50)" s:x="0" s:y="10" s:pid="in0">
      <text x="-3" y="-4" class="inputPortLabel">2</text>
    </g>
    <g transform="translate(0,70)" s:x="0" s:y="10" s:pid="in0">
      <text x="-3" y="-4" class="inputPortLabel">3</text>
    </g>
  </g>
  <g s:type="join" transform="translate(476.5,261)" s:width="4" s:height="40" id="cell_$join$,41,42,43,44,45,">
    <rect width="5" height="100" class="splitjoinBody" s:generic="body"/>
    <s:alias val="$_join_"/>
    <g s:x="5" s:y="20" s:pid="out"/>
    <g transform="translate(0,10)" s:x="0" s:y="10" s:pid="in0">
      <text x="-3" y="-4" class="inputPortLabel">0</text>
    </g>
    <g transform="translate(0,30)" s:x="0" s:y="10" s:pid="in0">
      <text x="-3" y="-4" class="inputPortLabel">1</text>
    </g>
    <g transform="translate(0,50)" s:x="0" s:y="10" s:pid="in0">
      <text x="-3" y="-4" class="inputPortLabel">2</text>
    </g>
    <g transform="translate(0,70)" s:x="0" s:y="10" s:pid="in0">
      <text x="-3" y="-4" class="inputPortLabel">3</text>
    </g>
    <g transform="translate(0,90)" s:x="0" s:y="10" s:pid="in0">
      <text x="-3" y="-4" class="inputPortLabel">4</text>
    </g>
  </g>
  <g s:type="join" transform="translate(320.5,283.5)" s:width="4" s:height="40" id="cell_$join$,28,29,30,31,27,">
    <rect width="5" height="100" class="splitjoinBody" s:generic="body"/>
    <s:alias val="$_join_"/>
    <g s:x="5" s:y="20" s:pid="out"/>
    <g transform="translate(0,10)" s:x="0" s:y="10" s:pid="in0">
      <text x="-3" y="-4" class="inputPortLabel">0</text>
    </g>
    <g transform="translate(0,30)" s:x="0" s:y="10" s:pid="in0">
      <text x="-3" y="-4" class="inputPortLabel">1</text>
    </g>
    <g transform="translate(0,50)" s:x="0" s:y="10" s:pid="in0">
      <text x="-3" y="-4" class="inputPortLabel">2</text>
    </g>
    <g transform="translate(0,70)" s:x="0" s:y="10" s:pid="in0">
      <text x="-3" y="-4" class="inputPortLabel">3</text>
    </g>
    <g transform="translate(0,90)" s:x="0" s:y="10" s:pid="in0">
      <text x="-3" y="-4" class="inputPortLabel">4</text>
    </g>
  </g>
  <g s:type="split" transform="translate(329.8,978)" s:width="5" s:height="40" id="cell_$split$,9,10,11,12,13,">
    <rect width="5" height="100" class="splitjoinBody" s:generic="body"/>
    <s:alias val="$_split_"/>
    <g s:x="0" s:y="20" s:pid="in"/>
    <g transform="translate(4,10)" s:x="4" s:y="10" s:pid="out0">
      <text x="5" y="-4">3</text>
    </g>
    <g transform="translate(4,30)" s:x="4" s:y="10" s:pid="out0">
      <text x="5" y="-4">2</text>
    </g>
    <g transform="translate(4,50)" s:x="4" s:y="10" s:pid="out0">
      <text x="5" y="-4">1</text>
    </g>
    <g transform="translate(4,70)" s:x="4" s:y="10" s:pid="out0">
      <text x="5" y="-4">0</text>
    </g>
    <g transform="translate(4,90)" s:x="4" s:y="10" s:pid="out0">
      <text x="5" y="-4">4</text>
    </g>
  </g>
  <g s:type="split" transform="translate(240,866)" s:width="5" s:height="40" id="cell_$split$,21,22,23,">
    <rect width="5" height="40" class="splitjoinBody" s:generic="body"/>
    <s:alias val="$_split_"/>
    <g s:x="0" s:y="20" s:pid="in"/>
    <g transform="translate(4,10)" s:x="4" s:y="10" s:pid="out0">
      <text x="5" y="-4">0:1</text>
    </g>
    <g transform="translate(4,30)" s:x="4" s:y="10" s:pid="out0">
      <text x="5" y="-4">2</text>
    </g>
  </g>
  <g s:type="split" transform="translate(329.8,548)" s:width="5" s:height="40" id="cell_$split$,4,5,6,7,8,">
    <rect width="5" height="100" class="splitjoinBody" s:generic="body"/>
    <s:alias val="$_split_"/>
    <g s:x="0" s:y="20" s:pid="in"/>
    <g transform="translate(4,10)" s:x="4" s:y="10" s:pid="out0">
      <text x="5" y="-4">3</text>
    </g>
    <g transform="translate(4,30)" s:x="4" s:y="10" s:pid="out0">
      <text x="5" y="-4">2</text>
    </g>
    <g transform="translate(4,50)" s:x="4" s:y="10" s:pid="out0">
      <text x="5" y="-4">1</text>
    </g>
    <g transform="translate(4,70)" s:x="4" s:y="10" s:pid="out0">
      <text x="5" y="-4">0</text>
    </g>
    <g transform="translate(4,90)" s:x="4" s:y="10" s:pid="out0">
      <text x="5" y="-4">4</text>
    </g>
  </g>
  <line x1="133" x2="218" y1="1097.5" y2="1097.5" class="net_21,22,23"/>
  <line x1="218" x2="218" y1="1097.5" y2="927" class="net_21,22,23"/>
  <line x1="218" x2="528" y1="927" y2="927" class="net_21,22,23"/>
  <line x1="528" x2="528" y1="927" y2="923" class="net_21,22,23"/>
  <circle cx="218" cy="927" r="2" style="fill:#000" class="net_21,22,23"/>
  <line x1="528" x2="557.6666666666666" y1="923" y2="923" class="net_21,22,23"/>
  <line x1="133" x2="218" y1="1097.5" y2="1097.5" class="net_21,22,23"/>
  <line x1="218" x2="218" y1="1097.5" y2="809" class="net_21,22,23"/>
  <circle cx="218" cy="809" r="2" style="fill:#000" class="net_21,22,23"/>
  <line x1="218" x2="234.66666666666666" y1="809" y2="809" class="net_21,22,23"/>
  <line x1="133" x2="218" y1="1097.5" y2="1097.5" class="net_21,22,23"/>
  <line x1="218" x2="218" y1="1097.5" y2="216.5" class="net_21,22,23"/>
  <line x1="218" x2="231" y1="216.5" y2="216.5" class="net_21,22,23"/>
  <line x1="133" x2="218" y1="1097.5" y2="1097.5" class="net_21,22,23"/>
  <line x1="218" x2="218" y1="1097.5" y2="266.5" class="net_21,22,23"/>
  <circle cx="218" cy="266.5" r="2" style="fill:#000" class="net_21,22,23"/>
  <line x1="218" x2="234.66666666666666" y1="266.5" y2="266.5" class="net_21,22,23"/>
  <line x1="133" x2="218" y1="1097.5" y2="1097.5" class="net_21,22,23"/>
  <line x1="218" x2="218" y1="1097.5" y2="326.5" class="net_21,22,23"/>
  <circle cx="218" cy="326.5" r="2" style="fill:#000" class="net_21,22,23"/>
  <line x1="218" x2="234.66666666666666" y1="326.5" y2="326.5" class="net_21,22,23"/>
  <line x1="133" x2="218" y1="1097.5" y2="1097.5" class="net_21,22,23"/>
  <line x1="218" x2="218" y1="1097.5" y2="493.5" class="net_21,22,23"/>
  <circle cx="218" cy="493.5" r="2" style="fill:#000" class="net_21,22,23"/>
  <line x1="218" x2="234.66666666666666" y1="493.5" y2="493.5" class="net_21,22,23"/>
  <line x1="133" x2="218" y1="1097.5" y2="1097.5" class="net_21,22,23"/>
  <line x1="218" x2="218" y1="1097.5" y2="886.5" class="net_21,22,23"/>
  <circle cx="218" cy="886.5" r="2" style="fill:#000" class="net_21,22,23"/>
  <line x1="218" x2="240" y1="886.5" y2="886.5" class="net_21,22,23"/>
  <line x1="132" x2="557.6666666666666" y1="938" y2="938" class="net_46"/>
  <line x1="132" x2="188" y1="938" y2="938" class="net_46"/>
  <line x1="188" x2="188" y1="938" y2="281.5" class="net_46"/>
  <circle cx="188" cy="938" r="2" style="fill:#000" class="net_46"/>
  <circle cx="188" cy="281.5" r="2" style="fill:#000" class="net_46"/>
  <line x1="188" x2="234.66666666666666" y1="281.5" y2="281.5" class="net_46"/>
  <line x1="132" x2="188" y1="938" y2="938" class="net_46"/>
  <line x1="188" x2="188" y1="938" y2="916" class="net_46"/>
  <line x1="188" x2="304" y1="916" y2="916" class="net_46"/>
  <line x1="304" x2="304" y1="916" y2="826.5" class="net_46"/>
  <circle cx="188" cy="916" r="2" style="fill:#000" class="net_46"/>
  <line x1="304" x2="318.6666666666667" y1="826.5" y2="826.5" class="net_46"/>
  <line x1="132" x2="188" y1="938" y2="938" class="net_46"/>
  <line x1="188" x2="188" y1="938" y2="124.5" class="net_46"/>
  <line x1="188" x2="407" y1="124.5" y2="124.5" class="net_46"/>
  <line x1="132" x2="234.66666666666666" y1="824" y2="824" class="net_47,48,49"/>
  <line x1="132" x2="178" y1="824" y2="824" class="net_47,48,49"/>
  <line x1="178" x2="178" y1="824" y2="195.5" class="net_47,48,49"/>
  <line x1="178" x2="394" y1="195.5" y2="195.5" class="net_47,48,49"/>
  <line x1="394" x2="394" y1="195.5" y2="319" class="net_47,48,49"/>
  <circle cx="178" cy="824" r="2" style="fill:#000" class="net_47,48,49"/>
  <line x1="394" x2="407" y1="319" y2="319" class="net_47,48,49"/>
  <line x1="132" x2="198" y1="759" y2="759" class="net_51,52"/>
  <line x1="198" x2="198" y1="759" y2="341.5" class="net_51,52"/>
  <circle cx="198" cy="759" r="2" style="fill:#000" class="net_51,52"/>
  <circle cx="198" cy="341.5" r="2" style="fill:#000" class="net_51,52"/>
  <line x1="198" x2="234.66666666666666" y1="341.5" y2="341.5" class="net_51,52"/>
  <line x1="132" x2="318.6666666666667" y1="759" y2="759" class="net_51,52"/>
  <line x1="132" x2="198" y1="759" y2="759" class="net_51,52"/>
  <line x1="198" x2="198" y1="759" y2="184.5" class="net_51,52"/>
  <line x1="198" x2="407" y1="184.5" y2="184.5" class="net_51,52"/>
  <line x1="132" x2="208" y1="1032" y2="1032" class="net_53,54"/>
  <line x1="208" x2="208" y1="1032" y2="508.5" class="net_53,54"/>
  <line x1="208" x2="234.66666666666666" y1="508.5" y2="508.5" class="net_53,54"/>
  <line x1="132" x2="208" y1="1032" y2="1032" class="net_53,54"/>
  <line x1="208" x2="208" y1="1032" y2="699" class="net_53,54"/>
  <circle cx="208" cy="699" r="2" style="fill:#000" class="net_53,54"/>
  <line x1="208" x2="318.6666666666667" y1="699" y2="699" class="net_53,54"/>
  <line x1="40" x2="52" y1="1052.5" y2="1052.5" class="net_3"/>
  <line x1="52" x2="52" y1="1052.5" y2="1097.5" class="net_3"/>
  <line x1="52" x2="102" y1="1097.5" y2="1097.5" class="net_3"/>
  <line x1="40" x2="102" y1="1117.5" y2="1117.5" class="net_2"/>
  <line x1="638" x2="670" y1="1058" y2="1058" class="net_32,33,34"/>
  <line x1="670" x2="670" y1="1058" y2="1160" class="net_32,33,34"/>
  <line x1="670" x2="52" y1="1160" y2="1160" class="net_32,33,34"/>
  <line x1="52" x2="52" y1="1160" y2="1137.5" class="net_32,33,34"/>
  <line x1="52" x2="102" y1="1137.5" y2="1137.5" class="net_32,33,34"/>
  <line x1="449" x2="449" y1="686" y2="959" class="net_x"/>
  <line x1="449" x2="475.3333333333333" y1="959" y2="959" class="net_x"/>
  <line x1="449" x2="449" y1="686" y2="529" class="net_x"/>
  <line x1="449" x2="475.3333333333333" y1="529" y2="529" class="net_x"/>
  <line x1="418.75" x2="475.3333333333333" y1="979" y2="979" class="net_12,11,10,9"/>
  <line x1="418.75" x2="439" y1="741.5" y2="741.5" class="net_35,36,37,38"/>
  <line x1="439" x2="439" y1="741.5" y2="999" class="net_35,36,37,38"/>
  <line x1="439" x2="485.3333333333333" y1="999" y2="999" class="net_35,36,37,38"/>
  <circle cx="439" cy="741.5" r="2" style="fill:#000" class="net_35,36,37,38"/>
  <line x1="485.3333333333333" x2="485.3333333333333" y1="999" y2="984" class="net_35,36,37,38"/>
  <line x1="418.75" x2="485.3333333333333" y1="741.5" y2="741.5" class="net_35,36,37,38"/>
  <line x1="485.3333333333333" x2="485.3333333333333" y1="741.5" y2="554" class="net_35,36,37,38"/>
  <line x1="245" x2="294" y1="876.5" y2="876.5" class="net_21,22"/>
  <line x1="294" x2="294" y1="876.5" y2="684" class="net_21,22"/>
  <circle cx="294" cy="876.5" r="2" style="fill:#000" class="net_21,22"/>
  <line x1="294" x2="318.6666666666667" y1="684" y2="684" class="net_21,22"/>
  <line x1="245" x2="294" y1="876.5" y2="876.5" class="net_21,22"/>
  <line x1="294" x2="294" y1="876.5" y2="744" class="net_21,22"/>
  <circle cx="294" cy="744" r="2" style="fill:#000" class="net_21,22"/>
  <line x1="294" x2="318.6666666666667" y1="744" y2="744" class="net_21,22"/>
  <line x1="245" x2="294" y1="876.5" y2="876.5" class="net_21,22"/>
  <line x1="294" x2="294" y1="876.5" y2="811.5" class="net_21,22"/>
  <circle cx="294" cy="811.5" r="2" style="fill:#000" class="net_21,22"/>
  <line x1="294" x2="318.6666666666667" y1="811.5" y2="811.5" class="net_21,22"/>
  <line x1="245" x2="314" y1="876.5" y2="876.5" class="net_21,22"/>
  <line x1="418.75" x2="475.3333333333333" y1="549" y2="549" class="net_7,6,5,4"/>
  <line x1="494" x2="528" y1="32" y2="32" class="net_60,61,62,63,64"/>
  <line x1="528" x2="528" y1="32" y2="77" class="net_60,61,62,63,64"/>
  <line x1="528" x2="556.3333333333334" y1="77" y2="77" class="net_60,61,62,63,64"/>
  <line x1="494" x2="556.3333333333334" y1="97" y2="97" class="net_65,66,67,68,69,70,71,72,73,74,75,76,77,78,79,80,81,82,83,84,85,86,87,88,89"/>
  <line x1="482.5" x2="566.3333333333334" y1="281.5" y2="281.5" class="net_41,42,43,44,45"/>
  <line x1="566.3333333333334" x2="566.3333333333334" y1="281.5" y2="102" class="net_41,42,43,44,45"/>
  <line x1="326.5" x2="384" y1="304" y2="304" class="net_28,29,30,31,27"/>
  <line x1="384" x2="384" y1="304" y2="109.5" class="net_28,29,30,31,27"/>
  <circle cx="384" cy="304" r="2" style="fill:#000" class="net_28,29,30,31,27"/>
  <line x1="384" x2="407" y1="109.5" y2="109.5" class="net_28,29,30,31,27"/>
  <line x1="326.5" x2="384" y1="304" y2="304" class="net_28,29,30,31,27"/>
  <line x1="384" x2="384" y1="304" y2="169.5" class="net_28,29,30,31,27"/>
  <circle cx="384" cy="169.5" r="2" style="fill:#000" class="net_28,29,30,31,27"/>
  <line x1="384" x2="407" y1="169.5" y2="169.5" class="net_28,29,30,31,27"/>
  <line x1="326.5" x2="407" y1="304" y2="304" class="net_28,29,30,31,27"/>
  <line x1="326.5" x2="384" y1="304" y2="304" class="net_28,29,30,31,27"/>
  <line x1="384" x2="384" y1="304" y2="408.5" class="net_28,29,30,31,27"/>
  <circle cx="384" cy="408.5" r="2" style="fill:#000" class="net_28,29,30,31,27"/>
  <line x1="384" x2="407" y1="408.5" y2="408.5" class="net_28,29,30,31,27"/>
  <line x1="326.5" x2="384" y1="304" y2="304" class="net_28,29,30,31,27"/>
  <line x1="384" x2="384" y1="304" y2="473.5" class="net_28,29,30,31,27"/>
  <line x1="384" x2="407" y1="473.5" y2="473.5" class="net_28,29,30,31,27"/>
  <line x1="344" x2="407" y1="423.5" y2="423.5" class="net_96,97,98,99"/>
  <line x1="344" x2="407" y1="488.5" y2="488.5" class="net_100,101,102,103,104"/>
  <line x1="495.3333333333333" x2="556.3333333333334" y1="539" y2="539" class="net_40"/>
  <line x1="334.3" x2="334.3" y1="639" y2="658" class="net_8"/>
  <line x1="334.3" x2="374" y1="658" y2="658" class="net_8"/>
  <line x1="374" x2="374" y1="658" y2="457.5" class="net_8"/>
  <line x1="374" x2="528" y1="457.5" y2="457.5" class="net_8"/>
  <line x1="528" x2="528" y1="457.5" y2="559" class="net_8"/>
  <line x1="528" x2="556.3333333333334" y1="559" y2="559" class="net_8"/>
  <line x1="245" x2="274" y1="896.5" y2="896.5" class="net_23"/>
  <line x1="274" x2="274" y1="896.5" y2="668" class="net_23"/>
  <line x1="274" x2="566.3333333333334" y1="668" y2="668" class="net_23"/>
  <circle cx="274" cy="896.5" r="2" style="fill:#000" class="net_23"/>
  <line x1="566.3333333333334" x2="566.3333333333334" y1="668" y2="564" class="net_23"/>
  <line x1="245" x2="274" y1="896.5" y2="896.5" class="net_23"/>
  <line x1="274" x2="274" y1="896.5" y2="1149" class="net_23"/>
  <line x1="274" x2="566.3333333333334" y1="1149" y2="1149" class="net_23"/>
  <line x1="566.3333333333334" x2="566.3333333333334" y1="1149" y2="1134" class="net_23"/>
  <line x1="495.3333333333333" x2="528" y1="969" y2="969" class="net_39"/>
  <line x1="528" x2="528" y1="969" y2="1109" class="net_39"/>
  <line x1="528" x2="556.3333333333334" y1="1109" y2="1109" class="net_39"/>
  <line x1="334.3" x2="334.3" y1="1069" y2="1129" class="net_13"/>
  <line x1="334.3" x2="556.3333333333334" y1="1129" y2="1129" class="net_13"/>
  <line x1="579.6666666666666" x2="593" y1="930.5" y2="930.5" class="net_24,25,26"/>
  <line x1="593" x2="593" y1="930.5" y2="1048" class="net_24,25,26"/>
  <line x1="593" x2="618" y1="1048" y2="1048" class="net_24,25,26"/>
  <line x1="583" x2="618" y1="1068" y2="1068" class="net_105,106,107"/>
  <line x1="256.66666666666663" x2="284" y1="816.5" y2="816.5" class="net_27"/>
  <line x1="284" x2="284" y1="816.5" y2="1088" class="net_27"/>
  <line x1="284" x2="628" y1="1088" y2="1088" class="net_27"/>
  <circle cx="284" cy="816.5" r="2" style="fill:#000" class="net_27"/>
  <line x1="628" x2="628" y1="1088" y2="1073" class="net_27"/>
  <line x1="256.66666666666663" x2="284" y1="816.5" y2="816.5" class="net_27"/>
  <line x1="284" x2="284" y1="816.5" y2="393.5" class="net_27"/>
  <line x1="284" x2="321" y1="393.5" y2="393.5" class="net_27"/>
  <line x1="321" x2="321" y1="393.5" y2="374.5" class="net_27"/>
  <line x1="576.3333333333334" x2="618" y1="549" y2="549" class="net_14"/>
  <line x1="576.3333333333334" x2="593" y1="1119" y2="1119" class="net_15"/>
  <line x1="593" x2="593" y1="1119" y2="1190" class="net_15"/>
  <line x1="593" x2="618" y1="1190" y2="1190" class="net_15"/>
  <line x1="576.3333333333334" x2="618" y1="87" y2="87" class="net_16,17,18,19,20"/>
  <line x1="334.8" x2="354" y1="988.5" y2="988.5" class="net_12"/>
  <line x1="354" x2="354" y1="988.5" y2="969" class="net_12"/>
  <line x1="354" x2="412.75" y1="969" y2="969" class="net_12"/>
  <line x1="334.8" x2="364" y1="1008.5" y2="1008.5" class="net_11"/>
  <line x1="364" x2="364" y1="1008.5" y2="989" class="net_11"/>
  <line x1="364" x2="412.75" y1="989" y2="989" class="net_11"/>
  <line x1="334.8" x2="374" y1="1028.5" y2="1028.5" class="net_10"/>
  <line x1="374" x2="374" y1="1028.5" y2="1009" class="net_10"/>
  <line x1="374" x2="412.75" y1="1009" y2="1009" class="net_10"/>
  <line x1="334.8" x2="413.25" y1="1048.5" y2="1048.5" class="net_9"/>
  <line x1="413.25" x2="413.25" y1="1048.5" y2="1029.5" class="net_9"/>
  <line x1="340.6666666666667" x2="354" y1="691.5" y2="691.5" class="net_35"/>
  <line x1="354" x2="354" y1="691.5" y2="731.5" class="net_35"/>
  <line x1="354" x2="412.75" y1="731.5" y2="731.5" class="net_35"/>
  <line x1="340.6666666666667" x2="412.75" y1="751.5" y2="751.5" class="net_36"/>
  <line x1="340.6666666666667" x2="354" y1="819" y2="819" class="net_37"/>
  <line x1="354" x2="354" y1="819" y2="771.5" class="net_37"/>
  <line x1="354" x2="412.75" y1="771.5" y2="771.5" class="net_37"/>
  <line x1="339" x2="413.25" y1="876.5" y2="876.5" class="net_38"/>
  <line x1="413.25" x2="413.25" y1="876.5" y2="792" class="net_38"/>
  <line x1="334.8" x2="354" y1="558.5" y2="558.5" class="net_7"/>
  <line x1="354" x2="354" y1="558.5" y2="539" class="net_7"/>
  <line x1="354" x2="412.75" y1="539" y2="539" class="net_7"/>
  <line x1="334.8" x2="364" y1="578.5" y2="578.5" class="net_6"/>
  <line x1="364" x2="364" y1="578.5" y2="559" class="net_6"/>
  <line x1="364" x2="412.75" y1="559" y2="559" class="net_6"/>
  <line x1="334.8" x2="384" y1="598.5" y2="598.5" class="net_5"/>
  <line x1="384" x2="384" y1="598.5" y2="579" class="net_5"/>
  <line x1="384" x2="412.75" y1="579" y2="579" class="net_5"/>
  <line x1="334.8" x2="413.25" y1="618.5" y2="618.5" class="net_4"/>
  <line x1="413.25" x2="413.25" y1="618.5" y2="599.5" class="net_4"/>
  <line x1="429" x2="477" y1="117" y2="117" class="net_41"/>
  <line x1="477" x2="477" y1="117" y2="271" class="net_41"/>
  <line x1="429" x2="439" y1="177" y2="177" class="net_42"/>
  <line x1="439" x2="439" y1="177" y2="291.5" class="net_42"/>
  <line x1="439" x2="476.5" y1="291.5" y2="291.5" class="net_42"/>
  <line x1="429" x2="476.5" y1="311.5" y2="311.5" class="net_43"/>
  <line x1="429" x2="439" y1="416" y2="416" class="net_44"/>
  <line x1="439" x2="439" y1="416" y2="331.5" class="net_44"/>
  <line x1="439" x2="476.5" y1="331.5" y2="331.5" class="net_44"/>
  <line x1="429" x2="477" y1="481" y2="481" class="net_45"/>
  <line x1="477" x2="477" y1="481" y2="352" class="net_45"/>
  <line x1="256" x2="321" y1="216.5" y2="216.5" class="net_28"/>
  <line x1="321" x2="321" y1="216.5" y2="293.5" class="net_28"/>
  <line x1="256.66666666666663" x2="274" y1="274" y2="274" class="net_29"/>
  <line x1="274" x2="274" y1="274" y2="314" class="net_29"/>
  <line x1="274" x2="320.5" y1="314" y2="314" class="net_29"/>
  <line x1="256.66666666666663" x2="320.5" y1="334" y2="334" class="net_30"/>
  <line x1="256.66666666666663" x2="274" y1="501" y2="501" class="net_31"/>
  <line x1="274" x2="274" y1="501" y2="354" class="net_31"/>
  <line x1="274" x2="320.5" y1="354" y2="354" class="net_31"/>
  <line x1="256" x2="329.8" y1="998.5" y2="998.5" class="net_9,10,11,12,13"/>
  <line x1="256" x2="329.8" y1="568.5" y2="568.5" class="net_4,5,6,7,8"/>
</svg>
