<svg xmlns="http://www.w3.org/2000/svg" xmlns:xlink="http://www.w3.org/1999/xlink" xmlns:s="https://github.com/nturley/netlistsvg" width="1023" height="483">
  <style>svg {
    stroke:#000;
    fill:none;
  }
  text {
    fill:#000;
    stroke:none;
    font-size:10px;
    font-weight: bold;
    font-family: "Courier New", monospace;
  }
  .nodelabel {
    text-anchor: middle;
  }
  .inputPortLabel {
    text-anchor: end;
  }
  .splitjoinBody {
    fill:#000;
  }</style>
  <g s:type="generic" transform="translate(539,294.5)" s:width="30" s:height="40" id="cell_char_to_morse_7seg_inst">
    <text x="15" y="-4" class="nodelabel cell_char_to_morse_7seg_inst" s:attribute="ref">char_to_morse_7seg_33300000_2</text>
    <rect width="30" height="60" s:generic="body" class="cell_char_to_morse_7seg_inst"/>
    <g transform="translate(0,10)" s:x="0" s:y="10" s:pid="in0" id="port_char_to_morse_7seg_inst~char">
      <text x="-3" y="-4" class="inputPortLabel cell_char_to_morse_7seg_inst">char</text>
    </g>
    <g transform="translate(0,30)" s:x="0" s:y="10" s:pid="in0" id="port_char_to_morse_7seg_inst~clk">
      <text x="-3" y="-4" class="inputPortLabel cell_char_to_morse_7seg_inst">clk</text>
    </g>
    <g transform="translate(0,50)" s:x="0" s:y="10" s:pid="in0" id="port_char_to_morse_7seg_inst~reset">
      <text x="-3" y="-4" class="inputPortLabel cell_char_to_morse_7seg_inst">reset</text>
    </g>
    <g transform="translate(30,10)" s:x="30" s:y="10" s:pid="out0" id="port_char_to_morse_7seg_inst~dashes">
      <text x="5" y="-4" style="fill:#000; stroke:none" class="cell_char_to_morse_7seg_inst">dashes</text>
    </g>
    <g transform="translate(30,30)" s:x="30" s:y="10" s:pid="out0" id="port_char_to_morse_7seg_inst~dots">
      <text x="5" y="-4" style="fill:#000; stroke:none" class="cell_char_to_morse_7seg_inst">dots</text>
    </g>
    <g transform="translate(30,50)" s:x="30" s:y="10" s:pid="out0" id="port_char_to_morse_7seg_inst~get_char">
      <text x="5" y="-4" style="fill:#000; stroke:none" class="cell_char_to_morse_7seg_inst">get_char</text>
    </g>
  </g>
  <g s:type="generic" transform="translate(574.6666666666666,221.5)" s:width="30" s:height="40" id="cell_display_clk_inst">
    <text x="15" y="-4" class="nodelabel cell_display_clk_inst" s:attribute="ref">clock_div_33300000_2000</text>
    <rect width="30" height="40" s:generic="body" class="cell_display_clk_inst"/>
    <g transform="translate(0,10)" s:x="0" s:y="10" s:pid="in0" id="port_display_clk_inst~clk">
      <text x="-3" y="-4" class="inputPortLabel cell_display_clk_inst">clk</text>
    </g>
    <g transform="translate(0,30)" s:x="0" s:y="10" s:pid="in0" id="port_display_clk_inst~rst">
      <text x="-3" y="-4" class="inputPortLabel cell_display_clk_inst">rst</text>
    </g>
    <g transform="translate(30,10)" s:x="30" s:y="10" s:pid="out0" id="port_display_clk_inst~clk_out">
      <text x="5" y="-4" style="fill:#000; stroke:none" class="cell_display_clk_inst">clk_out</text>
    </g>
  </g>
  <g s:type="generic" transform="translate(816.7142857142857,221.5)" s:width="30" s:height="40" id="cell_display_inst">
    <text x="15" y="-4" class="nodelabel cell_display_inst" s:attribute="ref">morse_display</text>
    <rect width="30" height="80" s:generic="body" class="cell_display_inst"/>
    <g transform="translate(0,10)" s:x="0" s:y="10" s:pid="in0" id="port_display_inst~clk">
      <text x="-3" y="-4" class="inputPortLabel cell_display_inst">clk</text>
    </g>
    <g transform="translate(0,30)" s:x="0" s:y="10" s:pid="in0" id="port_display_inst~dashes">
      <text x="-3" y="-4" class="inputPortLabel cell_display_inst">dashes</text>
    </g>
    <g transform="translate(0,50)" s:x="0" s:y="10" s:pid="in0" id="port_display_inst~dots">
      <text x="-3" y="-4" class="inputPortLabel cell_display_inst">dots</text>
    </g>
    <g transform="translate(0,70)" s:x="0" s:y="10" s:pid="in0" id="port_display_inst~reset">
      <text x="-3" y="-4" class="inputPortLabel cell_display_inst">reset</text>
    </g>
    <g transform="translate(30,10)" s:x="30" s:y="10" s:pid="out0" id="port_display_inst~cathode">
      <text x="5" y="-4" style="fill:#000; stroke:none" class="cell_display_inst">cathode</text>
    </g>
    <g transform="translate(30,30)" s:x="30" s:y="10" s:pid="out0" id="port_display_inst~dash">
      <text x="5" y="-4" style="fill:#000; stroke:none" class="cell_display_inst">dash</text>
    </g>
    <g transform="translate(30,50)" s:x="30" s:y="10" s:pid="out0" id="port_display_inst~dot">
      <text x="5" y="-4" style="fill:#000; stroke:none" class="cell_display_inst">dot</text>
    </g>
  </g>
  <g s:type="generic" transform="translate(393,294.5)" s:width="30" s:height="40" id="cell_rx_fifo_inst">
    <text x="15" y="-4" class="nodelabel cell_rx_fifo_inst" s:attribute="ref">circularfifobuffer_8_64</text>
    <rect width="30" height="100" s:generic="body" class="cell_rx_fifo_inst"/>
    <g transform="translate(0,10)" s:x="0" s:y="10" s:pid="in0" id="port_rx_fifo_inst~clk">
      <text x="-3" y="-4" class="inputPortLabel cell_rx_fifo_inst">clk</text>
    </g>
    <g transform="translate(0,30)" s:x="0" s:y="10" s:pid="in0" id="port_rx_fifo_inst~data_in">
      <text x="-3" y="-4" class="inputPortLabel cell_rx_fifo_inst">data_in</text>
    </g>
    <g transform="translate(0,50)" s:x="0" s:y="10" s:pid="in0" id="port_rx_fifo_inst~read_fifo">
      <text x="-3" y="-4" class="inputPortLabel cell_rx_fifo_inst">read_fifo</text>
    </g>
    <g transform="translate(0,70)" s:x="0" s:y="10" s:pid="in0" id="port_rx_fifo_inst~rst">
      <text x="-3" y="-4" class="inputPortLabel cell_rx_fifo_inst">rst</text>
    </g>
    <g transform="translate(0,90)" s:x="0" s:y="10" s:pid="in0" id="port_rx_fifo_inst~write_fifo">
      <text x="-3" y="-4" class="inputPortLabel cell_rx_fifo_inst">write_fifo</text>
    </g>
    <g transform="translate(30,10)" s:x="30" s:y="10" s:pid="out0" id="port_rx_fifo_inst~data_out">
      <text x="5" y="-4" style="fill:#000; stroke:none" class="cell_rx_fifo_inst">data_out</text>
    </g>
  </g>
  <g s:type="generic" transform="translate(187,386)" s:width="30" s:height="40" id="cell_rx_inst">
    <text x="15" y="-4" class="nodelabel cell_rx_inst" s:attribute="ref">uart_rx_1_8_1_9600_33300000_c4ea21bb365bbeeaf5f2c654883e56d11e43c44e</text>
    <rect width="30" height="60" s:generic="body" class="cell_rx_inst"/>
    <g transform="translate(0,10)" s:x="0" s:y="10" s:pid="in0" id="port_rx_inst~clk">
      <text x="-3" y="-4" class="inputPortLabel cell_rx_inst">clk</text>
    </g>
    <g transform="translate(0,30)" s:x="0" s:y="10" s:pid="in0" id="port_rx_inst~reset">
      <text x="-3" y="-4" class="inputPortLabel cell_rx_inst">reset</text>
    </g>
    <g transform="translate(0,50)" s:x="0" s:y="10" s:pid="in0" id="port_rx_inst~rx_serial_in">
      <text x="-3" y="-4" class="inputPortLabel cell_rx_inst">rx_serial_in</text>
    </g>
    <g transform="translate(30,10)" s:x="30" s:y="10" s:pid="out0" id="port_rx_inst~rx_byte_out">
      <text x="5" y="-4" style="fill:#000; stroke:none" class="cell_rx_inst">rx_byte_out</text>
    </g>
    <g transform="translate(30,30)" s:x="30" s:y="10" s:pid="out0" id="port_rx_inst~rx_byte_valid">
      <text x="5" y="-4" style="fill:#000; stroke:none" class="cell_rx_inst">rx_byte_valid</text>
    </g>
  </g>
  <g s:type="generic" transform="translate(572.4,22)" s:width="30" s:height="40" id="cell_tx_fifo_inst">
    <text x="15" y="-4" class="nodelabel cell_tx_fifo_inst" s:attribute="ref">circularfifobuffer_8_64</text>
    <rect width="30" height="100" s:generic="body" class="cell_tx_fifo_inst"/>
    <g transform="translate(0,10)" s:x="0" s:y="10" s:pid="in0" id="port_tx_fifo_inst~clk">
      <text x="-3" y="-4" class="inputPortLabel cell_tx_fifo_inst">clk</text>
    </g>
    <g transform="translate(0,30)" s:x="0" s:y="10" s:pid="in0" id="port_tx_fifo_inst~data_in">
      <text x="-3" y="-4" class="inputPortLabel cell_tx_fifo_inst">data_in</text>
    </g>
    <g transform="translate(0,50)" s:x="0" s:y="10" s:pid="in0" id="port_tx_fifo_inst~read_fifo">
      <text x="-3" y="-4" class="inputPortLabel cell_tx_fifo_inst">read_fifo</text>
    </g>
    <g transform="translate(0,70)" s:x="0" s:y="10" s:pid="in0" id="port_tx_fifo_inst~rst">
      <text x="-3" y="-4" class="inputPortLabel cell_tx_fifo_inst">rst</text>
    </g>
    <g transform="translate(0,90)" s:x="0" s:y="10" s:pid="in0" id="port_tx_fifo_inst~write_fifo">
      <text x="-3" y="-4" class="inputPortLabel cell_tx_fifo_inst">write_fifo</text>
    </g>
    <g transform="translate(30,10)" s:x="30" s:y="10" s:pid="out0" id="port_tx_fifo_inst~data_out">
      <text x="5" y="-4" style="fill:#000; stroke:none" class="cell_tx_fifo_inst">data_out</text>
    </g>
  </g>
  <g s:type="generic" transform="translate(824,22)" s:width="30" s:height="40" id="cell_tx_inst">
    <text x="15" y="-4" class="nodelabel cell_tx_inst" s:attribute="ref">uart_tx_1_8_1_9600_33300000_c4ea21bb365bbeeaf5f2c654883e56d11e43c44e</text>
    <rect width="30" height="80" s:generic="body" class="cell_tx_inst"/>
    <g transform="translate(0,10)" s:x="0" s:y="10" s:pid="in0" id="port_tx_inst~byte_to_transmit">
      <text x="-3" y="-4" class="inputPortLabel cell_tx_inst">byte_to_transmit</text>
    </g>
    <g transform="translate(0,30)" s:x="0" s:y="10" s:pid="in0" id="port_tx_inst~clk">
      <text x="-3" y="-4" class="inputPortLabel cell_tx_inst">clk</text>
    </g>
    <g transform="translate(0,50)" s:x="0" s:y="10" s:pid="in0" id="port_tx_inst~reset">
      <text x="-3" y="-4" class="inputPortLabel cell_tx_inst">reset</text>
    </g>
    <g transform="translate(0,70)" s:x="0" s:y="10" s:pid="in0" id="port_tx_inst~send_byte">
      <text x="-3" y="-4" class="inputPortLabel cell_tx_inst">send_byte</text>
    </g>
    <g transform="translate(30,10)" s:x="30" s:y="10" s:pid="out0" id="port_tx_inst~tx_active">
      <text x="5" y="-4" style="fill:#000; stroke:none" class="cell_tx_inst">tx_active</text>
    </g>
    <g transform="translate(30,30)" s:x="30" s:y="10" s:pid="out0" id="port_tx_inst~tx_serial_out">
      <text x="5" y="-4" style="fill:#000; stroke:none" class="cell_tx_inst">tx_serial_out</text>
    </g>
  </g>
  <g s:type="inputExt" transform="translate(37,222)" s:width="30" s:height="20" id="cell_clk">
    <text x="15" y="-4" class="nodelabel cell_clk" s:attribute="ref">clk</text>
    <s:alias val="$_inputExt_"/>
    <path d="M0,0 L0,20 L15,20 L30,10 L15,0 Z" class="cell_clk"/>
    <g s:x="28" s:y="10" s:pid="Y"/>
  </g>
  <g s:type="inputExt" transform="translate(37,355)" s:width="30" s:height="20" id="cell_rst">
    <text x="15" y="-4" class="nodelabel cell_rst" s:attribute="ref">rst</text>
    <s:alias val="$_inputExt_"/>
    <path d="M0,0 L0,20 L15,20 L30,10 L15,0 Z" class="cell_rst"/>
    <g s:x="28" s:y="10" s:pid="Y"/>
  </g>
  <g s:type="inputExt" transform="translate(37,426.5)" s:width="30" s:height="20" id="cell_uart_rx">
    <text x="15" y="-4" class="nodelabel cell_uart_rx" s:attribute="ref">uart_rx</text>
    <s:alias val="$_inputExt_"/>
    <path d="M0,0 L0,20 L15,20 L30,10 L15,0 Z" class="cell_uart_rx"/>
    <g s:x="28" s:y="10" s:pid="Y"/>
  </g>
  <g s:type="outputExt" transform="translate(969,42.5)" s:width="30" s:height="20" id="cell_uart_tx">
    <text x="15" y="-4" class="nodelabel cell_uart_tx" s:attribute="ref">uart_tx</text>
    <s:alias val="$_outputExt_"/>
    <path d="M30,0 L30,20 L15,20 L0,10 L15,0 Z" class="cell_uart_tx"/>
    <g s:x="0" s:y="10" s:pid="A"/>
  </g>
  <g s:type="outputExt" transform="translate(969,307)" s:width="30" s:height="20" id="cell_dot">
    <text x="15" y="-4" class="nodelabel cell_dot" s:attribute="ref">dot</text>
    <s:alias val="$_outputExt_"/>
    <path d="M30,0 L30,20 L15,20 L0,10 L15,0 Z" class="cell_dot"/>
    <g s:x="0" s:y="10" s:pid="A"/>
  </g>
  <g s:type="outputExt" transform="translate(969,242)" s:width="30" s:height="20" id="cell_dash">
    <text x="15" y="-4" class="nodelabel cell_dash" s:attribute="ref">dash</text>
    <s:alias val="$_outputExt_"/>
    <path d="M30,0 L30,20 L15,20 L0,10 L15,0 Z" class="cell_dash"/>
    <g s:x="0" s:y="10" s:pid="A"/>
  </g>
  <g s:type="outputExt" transform="translate(969,177)" s:width="30" s:height="20" id="cell_cathode">
    <text x="15" y="-4" class="nodelabel cell_cathode" s:attribute="ref">cathode</text>
    <s:alias val="$_outputExt_"/>
    <path d="M30,0 L30,20 L15,20 L0,10 L15,0 Z" class="cell_cathode"/>
    <g s:x="0" s:y="10" s:pid="A"/>
  </g>
  <g s:type="constant" transform="translate(393,113.5)" s:width="30" s:height="20" id="cell_0">
    <text x="15" y="-4" class="nodelabel cell_0" s:attribute="ref">0</text>
    <s:alias val="$_constant_"/>
    <rect width="30" height="20" class="cell_0"/>
    <g s:x="30" s:y="10" s:pid="Y"/>
  </g>
  <g s:type="join" transform="translate(19,12)" s:width="4" s:height="40" id="cell_$join$,x,x,x,x,x,x,x,x,">
    <rect width="5" height="40" class="splitjoinBody" s:generic="body"/>
    <s:alias val="$_join_"/>
    <g s:x="5" s:y="20" s:pid="out"/>
    <g transform="translate(0,10)" s:x="0" s:y="10" s:pid="in0">
      <text x="-3" y="-4" class="inputPortLabel">0</text>
    </g>
  </g>
  <line x1="424" x2="539" y1="305" y2="305" class="net_13,14,15,16,17,18,19,20"/>
  <line x1="65" x2="99" y1="232" y2="232" class="net_2"/>
  <line x1="99" x2="99" y1="232" y2="459" class="net_2"/>
  <line x1="99" x2="483" y1="459" y2="459" class="net_2"/>
  <line x1="483" x2="483" y1="459" y2="325" class="net_2"/>
  <circle cx="99" cy="232" r="2" style="fill:#000" class="net_2"/>
  <line x1="483" x2="539" y1="325" y2="325" class="net_2"/>
  <line x1="65" x2="574.6666666666666" y1="232" y2="232" class="net_2"/>
  <line x1="65" x2="99" y1="232" y2="232" class="net_2"/>
  <line x1="99" x2="99" y1="232" y2="305" class="net_2"/>
  <circle cx="99" cy="305" r="2" style="fill:#000" class="net_2"/>
  <line x1="99" x2="393" y1="305" y2="305" class="net_2"/>
  <line x1="65" x2="99" y1="232" y2="232" class="net_2"/>
  <line x1="99" x2="99" y1="232" y2="396.5" class="net_2"/>
  <circle cx="99" cy="396.5" r="2" style="fill:#000" class="net_2"/>
  <line x1="99" x2="187" y1="396.5" y2="396.5" class="net_2"/>
  <line x1="65" x2="99" y1="232" y2="232" class="net_2"/>
  <line x1="99" x2="99" y1="232" y2="32.5" class="net_2"/>
  <line x1="99" x2="572.4" y1="32.5" y2="32.5" class="net_2"/>
  <line x1="65" x2="99" y1="232" y2="232" class="net_2"/>
  <line x1="99" x2="99" y1="232" y2="178.5" class="net_2"/>
  <line x1="99" x2="687" y1="178.5" y2="178.5" class="net_2"/>
  <line x1="687" x2="687" y1="178.5" y2="52.5" class="net_2"/>
  <circle cx="99" cy="178.5" r="2" style="fill:#000" class="net_2"/>
  <line x1="687" x2="824" y1="52.5" y2="52.5" class="net_2"/>
  <line x1="65" x2="89" y1="365" y2="365" class="net_3"/>
  <line x1="89" x2="89" y1="365" y2="470" class="net_3"/>
  <line x1="89" x2="493" y1="470" y2="470" class="net_3"/>
  <line x1="493" x2="493" y1="470" y2="345" class="net_3"/>
  <circle cx="89" cy="365" r="2" style="fill:#000" class="net_3"/>
  <circle cx="493" cy="470" r="2" style="fill:#000" class="net_3"/>
  <line x1="493" x2="539" y1="345" y2="345" class="net_3"/>
  <line x1="65" x2="89" y1="365" y2="365" class="net_3"/>
  <line x1="89" x2="89" y1="365" y2="252" class="net_3"/>
  <circle cx="89" cy="252" r="2" style="fill:#000" class="net_3"/>
  <line x1="89" x2="574.6666666666666" y1="252" y2="252" class="net_3"/>
  <line x1="65" x2="89" y1="365" y2="365" class="net_3"/>
  <line x1="89" x2="89" y1="365" y2="470" class="net_3"/>
  <line x1="89" x2="717" y1="470" y2="470" class="net_3"/>
  <line x1="717" x2="717" y1="470" y2="292" class="net_3"/>
  <line x1="717" x2="816.7142857142857" y1="292" y2="292" class="net_3"/>
  <line x1="65" x2="393" y1="365" y2="365" class="net_3"/>
  <line x1="65" x2="89" y1="365" y2="365" class="net_3"/>
  <line x1="89" x2="89" y1="365" y2="416.5" class="net_3"/>
  <circle cx="89" cy="416.5" r="2" style="fill:#000" class="net_3"/>
  <line x1="89" x2="187" y1="416.5" y2="416.5" class="net_3"/>
  <line x1="65" x2="89" y1="365" y2="365" class="net_3"/>
  <line x1="89" x2="89" y1="365" y2="92.5" class="net_3"/>
  <line x1="89" x2="572.4" y1="92.5" y2="92.5" class="net_3"/>
  <line x1="65" x2="89" y1="365" y2="365" class="net_3"/>
  <line x1="89" x2="89" y1="365" y2="189.5" class="net_3"/>
  <line x1="89" x2="697" y1="189.5" y2="189.5" class="net_3"/>
  <line x1="697" x2="697" y1="189.5" y2="72.5" class="net_3"/>
  <circle cx="89" cy="189.5" r="2" style="fill:#000" class="net_3"/>
  <line x1="697" x2="824" y1="72.5" y2="72.5" class="net_3"/>
  <line x1="605.6666666666666" x2="816.7142857142857" y1="232" y2="232" class="net_32"/>
  <line x1="570" x2="697" y1="305" y2="305" class="net_21,22,23,24,25"/>
  <line x1="697" x2="697" y1="305" y2="252" class="net_21,22,23,24,25"/>
  <line x1="697" x2="816.7142857142857" y1="252" y2="252" class="net_21,22,23,24,25"/>
  <line x1="570" x2="707" y1="325" y2="325" class="net_26,27,28,29,30"/>
  <line x1="707" x2="707" y1="325" y2="272" class="net_26,27,28,29,30"/>
  <line x1="707" x2="816.7142857142857" y1="272" y2="272" class="net_26,27,28,29,30"/>
  <line x1="218" x2="307" y1="396.5" y2="396.5" class="net_33,34,35,36,37,38,39,40"/>
  <line x1="307" x2="307" y1="396.5" y2="325" class="net_33,34,35,36,37,38,39,40"/>
  <line x1="307" x2="393" y1="325" y2="325" class="net_33,34,35,36,37,38,39,40"/>
  <line x1="570" x2="687" y1="345" y2="345" class="net_31"/>
  <line x1="687" x2="687" y1="345" y2="274.5" class="net_31"/>
  <line x1="687" x2="317" y1="274.5" y2="274.5" class="net_31"/>
  <line x1="317" x2="317" y1="274.5" y2="345" class="net_31"/>
  <line x1="317" x2="393" y1="345" y2="345" class="net_31"/>
  <line x1="218" x2="317" y1="416.5" y2="416.5" class="net_41"/>
  <line x1="317" x2="317" y1="416.5" y2="385" class="net_41"/>
  <line x1="317" x2="393" y1="385" y2="385" class="net_41"/>
  <line x1="65" x2="187" y1="436.5" y2="436.5" class="net_4"/>
  <line x1="483" x2="483" y1="168.5" y2="72.5" class="net_x"/>
  <line x1="483" x2="572.4" y1="72.5" y2="72.5" class="net_x"/>
  <line x1="483" x2="483" y1="168.5" y2="200.5" class="net_x"/>
  <line x1="483" x2="707" y1="200.5" y2="200.5" class="net_x"/>
  <line x1="707" x2="707" y1="200.5" y2="92.5" class="net_x"/>
  <line x1="707" x2="824" y1="92.5" y2="92.5" class="net_x"/>
  <line x1="423" x2="493" y1="123.5" y2="123.5" class="net_50"/>
  <line x1="493" x2="493" y1="123.5" y2="112.5" class="net_50"/>
  <line x1="493" x2="572.4" y1="112.5" y2="112.5" class="net_50"/>
  <line x1="603.4" x2="824" y1="32.5" y2="32.5" class="net_42,43,44,45,46,47,48,49"/>
  <line x1="855" x2="969" y1="52.5" y2="52.5" class="net_5"/>
  <line x1="847.7142857142857" x2="944" y1="272" y2="272" class="net_6"/>
  <line x1="944" x2="944" y1="272" y2="317" class="net_6"/>
  <line x1="944" x2="969" y1="317" y2="317" class="net_6"/>
  <line x1="847.7142857142857" x2="969" y1="252" y2="252" class="net_7"/>
  <line x1="847.7142857142857" x2="944" y1="232" y2="232" class="net_8,9,10,11,12"/>
  <line x1="944" x2="944" y1="232" y2="187" class="net_8,9,10,11,12"/>
  <line x1="944" x2="969" y1="187" y2="187" class="net_8,9,10,11,12"/>
</svg>
